<?xml version="1.0" standalone="no"?>
<!DOCTYPE svg PUBLIC "-//W3C//DTD SVG 1.1//EN" "http://www.w3.org/Graphics/SVG/1.1/DTD/svg11.dtd" >
<!--
2013-9-30: Created.
-->
<svg>
<metadata>
Created by iconfont
</metadata>
<defs>

<font id="iconfont-leap" horiz-adv-x="1024" >
  <font-face
    font-family="iconfont-leap"
    font-weight="500"
    font-stretch="normal"
    units-per-em="1024"
    ascent="896"
    descent="-128"
  />
    <missing-glyph />
    
    <glyph glyph-name="x" unicode="x" horiz-adv-x="1001"
d="M281 543q-27 -1 -53 -1h-83q-18 0 -36.5 -6t-32.5 -18.5t-23 -32t-9 -45.5v-76h912v41q0 16 -0.5 30t-0.5 18q0 13 -5 29t-17 29.5t-31.5 22.5t-49.5 9h-133v-97h-438v97zM955 310v-52q0 -23 0.5 -52t0.5 -58t-10.5 -47.5t-26 -30t-33 -16t-31.5 -4.5q-14 -1 -29.5 -0.5
t-29.5 0.5h-32l-45 128h-439l-44 -128h-29h-34q-20 0 -45 1q-25 0 -41 9.5t-25.5 23t-13.5 29.5t-4 30v167h911zM163 247q-12 0 -21 -8.5t-9 -21.5t9 -21.5t21 -8.5q13 0 22 8.5t9 21.5t-9 21.5t-22 8.5zM316 123q-8 -26 -14 -48q-5 -19 -10.5 -37t-7.5 -25t-3 -15t1 -14.5
t9.5 -10.5t21.5 -4h37h67h81h80h64h36q23 0 34 12t2 38q-5 13 -9.5 30.5t-9.5 34.5q-5 19 -11 39h-368zM336 498v228q0 11 2.5 23t10 21.5t20.5 15.5t34 6h188q31 0 51.5 -14.5t20.5 -52.5v-227h-327z" />
    

    
    <glyph glyph-name="error" unicode="&#58949;" d="M512.3256 746.6647c-246.914 0-447.0118-200.0957-447.0118-447.0118 0-246.8598 200.0978-447.0118 447.0118-447.0118 246.9161 0 447.0118 200.1521 447.0118 447.0118C959.3375 546.569 759.2417 746.6647 512.3256 746.6647zM568.2012 43.4051H456.44902400000007V155.16032000000007h111.752192V43.405055999999945zM568.2012 199.6849H456.44902400000007V590.82112h111.752192V199.68486400000006z"  horiz-adv-x="1024" />

    
    <glyph glyph-name="playcirclefill" unicode="&#59229;" d="M512.272 771.978667c-259.7376 0-472.250667-212.513067-472.250667-472.250667s212.513067-472.250667 472.250667-472.250667 472.250667 212.513067 472.250667 472.250667S772.0096 771.978667 512.272 771.978667zM417.821867 87.214933 417.821867 512.241067l283.3504-212.513067L417.821867 87.214933z"  horiz-adv-x="1024" />

    
    <glyph glyph-name="windows" unicode="&#59093;" d="M436.65751953 347.49638672000003v-326.95751953l-342.51416016 47.21748047v279.73916015h342.51416016zM436.65751953 720.67470703v-330.975h-342.51416016v283.75751953zM929.85751953 347.49638672000003v-394.74667969l-455.52832031 62.775v331.97167969h455.52832031zM929.85751953 788.46386719v-398.76416016h-455.52832031v335.98916016z"  horiz-adv-x="1024" />

    
    <glyph glyph-name="expend" unicode="&#58946;" d="M889.6 677.6C889.6 677.6 889.6 677.6 889.6 677.6L889.6 677.6C883.2 677.6 876.8 684 870.4 684l0 0 0 0-204.8 0C652.8 684 640 671.2 640 658.4s12.8-25.6 25.6-25.6l147.2 0L672 492c-6.4-6.4-6.4-25.6 0-32 6.4-6.4 12.8-6.4 19.2-6.4s12.8 0 19.2 6.4l140.8 140.8 0-147.2c0-12.8 12.8-25.6 25.6-25.6S896 434.4 896 453.6L896 658.4C896 664.8 889.6 671.2 889.6 677.6zM889.6-77.6C889.6-77.6 889.6-77.6 889.6-77.6 889.6-77.6 889.6-77.6 889.6-77.6c6.4 6.4 6.4 12.8 6.4 19.2 0 0 0 0 0 0l0 0 0 204.8c0 12.8-12.8 25.6-25.6 25.6s-25.6-12.8-25.6-25.6l0-147.2L704 140c-6.4 6.4-25.6 6.4-32 0-6.4-6.4-6.4-12.8-6.4-19.2s0-12.8 6.4-19.2l140.8-140.8-147.2 0c-12.8 0-25.6-12.8-25.6-25.6s12.8-25.6 25.6-25.6l204.8 0C876.8-84 883.2-84 889.6-77.6zM140.8 677.6C140.8 677.6 140.8 677.6 140.8 677.6L140.8 677.6C140.8 677.6 147.2 684 153.6 684l0 0 0 0 204.8 0C377.6 684 384 671.2 384 658.4S377.6 632.8 364.8 632.8L211.2 632.8 358.4 492c6.4-6.4 6.4-25.6 0-32C352 453.6 345.6 453.6 339.2 453.6S326.4 453.6 320 460L179.2 600.8l0-147.2C179.2 434.4 166.4 428 153.6 428S134.4 434.4 134.4 453.6L134.4 658.4C134.4 664.8 134.4 671.2 140.8 677.6zM140.8-77.6C140.8-77.6 140.8-77.6 140.8-77.6 140.8-77.6 140.8-77.6 140.8-77.6c-6.4 6.4-6.4 12.8-6.4 19.2 0 0 0 0 0 0l0 0 0 204.8c0 12.8 12.8 25.6 25.6 25.6s25.6-12.8 25.6-25.6l0-147.2L320 140c6.4 6.4 25.6 6.4 32 0 6.4-6.4 6.4-12.8 6.4-19.2s0-12.8-6.4-19.2l-140.8-140.8 147.2 0c12.8 0 25.6-12.8 25.6-25.6S377.6-84 364.8-84L153.6-84C147.2-84 140.8-84 140.8-77.6z"  horiz-adv-x="1024" />

    
    <glyph glyph-name="linux" unicode="&#59175;" d="M459.26957656 627.56565791q-5.52413935-0.50219472-7.78401474-5.27304199t-4.26865343-4.77084814q-2.51097276-0.50219472-2.51097274 2.51097275 0 6.02633408 9.54169541 7.53291738l5.02194462 0z m43.69092188-7.03072265q-2.00877803-0.50219472-5.77523672 3.26426396t-8.7884042 2.25987539q12.05266816 5.52413935 16.07022422-1.00438857 1.5065833-3.0131666-1.5065833-4.51975078z m-176.27027168-214.4370542q-2.00877803 0.50219472-3.0131666-1.5065833t-2.25987539-6.27743145-2.76207013-6.77962618-5.02194462-6.5285288q-3.51536133-5.02194463-0.50219473-6.02633409 2.00877803-0.50219472 6.27743145 3.51536133t6.27743144 9.03950069q0.50219472 1.5065833 1.00438857 3.51536133t1.00438858 3.0131666 0.75329209 2.25987539 2.51097276 2.00877802l0 1.50658331-0.50219473 1.25548593-1.50658331 1.00438858z m429.37630312-180.28782774q0 9.03950068-27.62069766 21.09216885 2.00877803 7.53291739 3.7664587 13.81034882t2.51097275 13.05705674 1.50658331 10.79718224 2.51097274 11.29937607-0.50219472 9.79279277-1.75768067 11.04827871-2.00877802 10.2949875-2.51097276 12.55486289-2.76207011 13.3081541q-5.02194463 24.10533633-23.60314161 51.72603398t-36.15800449 37.6645878q12.05266816-10.04389013 28.62508711-41.68214385 43.69092188-81.35550967 27.11850293-139.61007246-5.52413935-20.08778027-25.1097249-21.09216884-15.56802949-2.00877803-19.33448818 9.29059804t-4.01755606 41.93324121-5.77523672 53.73481201q-4.51975078 19.58558555-9.79279277 34.65142119t-9.79279278 22.84985039-7.78401474 12.30376553-6.52852881 7.53291739-3.76645869 3.51536133q-7.03072266 31.13605898-15.56802949 51.72603398t-14.81473828 28.12289238-11.8015708 16.57241895-7.53291739 20.08778027q-2.00877803 10.54608487 3.01316661 26.86740645t2.25987539 24.85862841-22.34765567 12.55486289q-7.53291739 1.5065833-22.34765566 9.03950068t-17.82790489 8.03511211q-4.01755606 0.50219472-5.52413935 13.05705674t4.01755606 25.61191964 18.07900224 13.55925146q18.58119698 1.5065833 25.61191963-15.06583477t2.00877803-29.12728096q-5.52413935-9.54169541-1.00438858-13.30815409t15.06583477-2.51097276q6.52852881 2.00877803 6.52852881 18.07900224l0 18.58119698q-2.51097276 15.06583477-6.77962618 25.1097249t-10.54608486 15.31693213-11.8015708 7.53291739-13.55925147 3.76645868q-53.73481201-4.01755606-44.69531132-67.29406347 0-7.53291739-0.50219473-7.53291739-4.51975078 4.51975078-14.81473828 5.273042t-16.57241895-2.51097276-7.78401474 2.51097276q0.50219472 28.62508711-8.03511211 45.19750518t-22.59875303 17.07461279q-13.55925146 0.50219472-20.84107236-13.81034883t-8.28620948-29.88057305q-0.50219472-7.53291739 1.75768067-18.58119697t6.52852881-18.83229433 7.78401474-6.77962618q5.02194463 1.5065833 8.03511211 7.03072266 2.00877803 4.51975078-3.51536133 4.01755605-3.51536133 0-7.78401474 7.28182002t-4.77084815 16.82351631q-0.50219472 11.04827872 4.51975078 18.58119697t17.07461279 7.03072266q8.53730684 0 13.55925148-10.54608487t4.77084813-19.58558554-0.75329208-11.04827871q-11.04827872-7.53291739-15.56802949-14.56364092-4.01755606-6.02633408-13.81034883-11.8015708t-10.2949875-6.27743145q-6.52852881-7.03072266-7.78401475-13.55925146t3.76645869-9.03950068q7.03072266-4.01755606 12.55486289-9.79279278t8.03511211-9.54169541 9.29059805-6.52852881 17.82790489-3.26426396q23.60314161-1.00438857 51.22383925 7.53291738 1.00438857 0.50219472 11.55047344 3.51536133t17.32571015 5.27304199 14.81473828 6.52852881 10.54608487 8.7884042q4.51975078 7.03072266 10.04389013 4.01755606 2.51097276-1.5065833 3.26426397-4.26865342t-1.5065833-6.02633408-8.28620947-4.77084815q-10.04389013-3.0131666-28.37398975-10.79718222t-22.84985039-9.79279278q-22.0965583-9.54169541-35.15361504-11.55047344-12.55486289-2.51097276-39.67336582 1.00438857-5.02194463 1.00438857-4.51975078-1.00438857t8.53730683-9.54169541q12.55486289-11.55047344 33.64703174-11.04827871 8.53730684 0.50219472 18.07900225 3.51536133t18.07900224 7.03072266 16.82351632 8.78840419 15.06583476 8.53730684 12.30376553 6.02633408 8.7884042 1.25548594 4.26865341-5.52413936q0-1.00438857-0.50219472-2.25987539t-2.00877803-2.51097275-3.0131666-2.25987539-4.26865342-2.51097275-4.51975078-2.25987539-5.02194463-2.51097276-4.77084815-2.25987539q-14.06144619-7.03072266-33.89812909-22.0965583t-33.39593438-21.59436357-24.60753106-0.50219473q-10.54608487 5.52413935-31.6382537 36.66019921-11.04827872 15.56802949-12.5548629 11.04827872-0.50219472-1.5065833-0.50219473-5.02194463 0-12.55486289-7.53291737-28.37398975t-14.81473829-27.87179502-10.54608486-29.12728096 5.77523672-31.6382537q-11.55047344-3.0131666-31.38715635-45.19750518t-23.85423897-70.80942568q-1.00438857-9.03950068-0.75329208-34.6514212t-2.76207012-29.62947568q-4.01755606-12.05266816-14.56364092-1.5065833-16.07022422 15.56802949-18.07900224 47.2062832-1.00438857 14.06144619 2.00877802 28.12289239 2.00877803 9.54169541-0.50219472 9.03950068l-2.00877804-2.51097275q-18.07900224-32.64264316 5.02194464-83.3642877 2.51097276-6.02633408 12.55486289-14.06144619t12.05266817-10.04389013q10.04389013-11.55047344 52.2282287-45.44860255t46.70408935-38.41787988q8.03511211-7.53291739 8.78840421-19.08339082t-7.03072266-21.59436357-22.84985039-11.55047344q4.01755606-7.53291739 14.56364092-22.34765567t14.06144619-27.11850292 3.51536133-35.4047124q23.10094688 12.05266816 3.51536133 46.20189462-2.00877803 4.01755606-5.273042 8.03511211t-4.77084814 6.02633408-1.00438858 3.01316661q1.5065833 2.51097276 6.52852881 4.77084814t10.04389014-1.25548594q23.10094688-26.11411435 83.36428769-18.07900225 66.79186963 7.53291739 88.88842794 43.69092188 11.55047344 19.08339082 17.07461279 15.06583477 6.02633408-3.0131666 5.02194463-26.11411436-0.50219472-12.55486289-11.55047344-46.20189463-4.51975078-11.55047344-3.0131666-18.83229433t12.05266817-7.78401475q1.5065833 9.54169541 7.28182001 38.66897725t6.77962617 45.19750517q1.00438857 10.54608487-3.26426396 36.91129658t-3.7664587 48.71286739 11.55047344 35.4047124q7.53291739 9.03950068 25.61191963 9.03950068 0.50219472 18.58119698 17.32571016 26.61630909t36.40910185 5.27304198 30.13167041-11.29937607z m-315.37815029 415.31485694q1.5065833 8.53730684-1.25548594 15.06583476t-5.77523672 7.53291738q-4.51975078 1.00438857-4.51975078-3.51536133 1.00438857-2.51097276 2.51097276-3.0131666 5.02194463 0 3.51536132-7.53291738-1.5065833-10.04389013 4.01755605-10.04389014 1.5065833 0 1.50658331 1.50658331z m210.41949814-98.93231807q-1.00438857 4.01755606-3.26426396 5.77523672t-6.52852881 2.51097275-7.28182002 2.76207011q-2.51097276 1.5065833-4.77084814 4.01755606t-3.51536133 4.01755605-2.76207012 3.26426398-2.00877803 2.00877802-2.00877802-0.75329209q-7.03072266-8.03511211 3.51536133-21.84546093t19.58558554-15.81912687q4.51975078-0.50219472 7.28182002 4.01755606t1.75768066 10.04389014z m-89.39062177 106.96743018q0 5.52413935-2.51097276 9.79279276t-5.52413935 6.27743145-4.51975078 1.50658331q-7.03072266-0.50219472-3.51536133-3.51536133l2.00877803-1.00438858q7.03072266-2.00877803 9.03950068-15.56802949 0-1.5065833 4.01755606 1.00438857z m27.11850292 117.01132031q0 1.00438857-1.25548593 2.51097275t-4.51975078 3.51536133-4.77084815 3.0131666q-7.53291739 7.53291739-12.05266816 7.53291739-4.51975078-0.50219472-5.77523672-3.7664587t-0.50219473-6.5285288 2.51097276-6.27743145q-0.50219472-2.00877803-3.0131666-5.27304199t-3.01316661-4.51975078 1.50658331-4.26865343q2.00877803-1.5065833 4.01755605 0t5.52413936 4.51975078 7.53291738 4.51975079q0.50219472 0.50219472 4.51975078 0.50219473t7.53291739 1.00438857 4.51975078 3.51536133z m283.73989571-673.44283301q10.04389013-6.02633408 15.56802949-12.30376553t6.02633408-12.05266817-1.25548594-11.29937607-7.78401474-11.04827871-11.8015708-9.79279277-15.06583477-9.29059805-15.81912685-8.28620948-16.07022422-7.78401474-13.55925146-6.52852881q-19.08339082-9.54169541-42.93763067-28.12289238t-37.91568516-32.14044844q-8.53730684-8.03511211-34.14922646-9.79279277t-44.69531133 7.28182002q-9.03950068 4.51975078-14.81473828 11.8015708t-8.28620948 12.80596025-11.0482787 9.79279278-23.60314161 4.77084814q-22.0965583 0.50219472-65.28528545 0.50219473-9.54169541 0-28.62508711-0.75329209t-29.12728095-1.25548594q-22.0965583-0.50219472-39.92446319-7.53291738t-26.86740644-15.06583477-21.84546093-14.31254355-26.86740645-5.77523672q-14.56364092 0.50219472-55.74359004 15.56802949t-73.32039756 21.59436357q-9.54169541 2.00877803-25.61191963 4.77084815t-25.1097249 4.51975078-19.83668291 4.77084815-16.8235163 7.28182002-8.53730685 9.79279277q-5.02194463 11.55047344 3.51536133 33.39593437t9.03950068 27.36960029q0.50219472 8.03511211-2.00877802 20.08778028t-5.02194463 21.34326621-2.25987539 18.33009961 5.27304199 13.55925147q7.03072266 6.02633408 28.62508711 7.03072265t30.13167041 6.02633408q15.06583477 9.03950068 21.09216885 17.57680752t6.02633408 25.61191963q10.54608487-36.66019922-16.07022422-53.23261729-16.07022422-10.04389013-41.68214385-7.53291737-17.07461279 1.5065833-21.59436357-5.02194463-6.52852881-7.53291739 2.51097276-28.62508711 1.00438857-3.0131666 4.01755605-9.03950069t4.26865342-9.03950069 2.25987539-8.53730683 0.50219472-11.04827871q0-7.53291739-8.53730683-24.60753105t-7.03072265-24.10533633q1.5065833-8.53730684 18.58119696-13.05705674 10.04389013-3.0131666 42.43543594-9.29059805t49.96835332-10.2949875q12.05266816-3.0131666 37.16239307-11.0482787t41.43104649-11.55047344 27.87179501-2.00877804q21.59436357 3.0131666 32.3915458 14.0614462t11.55047344 24.10533633-3.76645869 29.37837832-9.54169542 26.11411435-10.04389013 18.33009961q-60.76553555 95.41695586-84.87087187 121.53107022-34.14922646 37.16239307-56.74797949 20.08778027-5.52413935-4.51975078-7.53291739 7.53291738-1.5065833 8.03511211-1.00438857 19.08339083 0.50219472 14.56364092 5.02194463 26.11411435t12.05266816 23.6031416 11.04827871 21.09216885q4.01755606 10.54608487 13.3081541 36.15800449t14.81473828 39.1711711 15.06583477 30.63386513 19.58558555 27.11850293q55.24139531 71.81381426 62.27211885 97.92792861-6.02633408 56.24578477-8.03511211 155.68029669-1.00438857 45.19750518 12.05266816 76.08246767t53.23261728 52.47932608q19.58558555 10.54608487 52.22822872 10.54608485 26.61630908 0.50219472 53.23261729-6.77962617t44.69531132-20.84107236q28.62508711-21.09216885 45.95079727-61.01663291t14.81473828-74.07368965q-2.51097276-47.70847793 15.06583476-107.46962402 17.07461279-56.7479795 66.79186963-109.47840205 27.62069766-29.62947568 49.96835332-81.8577044t29.88057305-95.91915058q4.01755606-24.60753105 2.51097276-42.43543594t-6.02633409-27.87179502-10.04389013-11.04827871q-5.02194463-1.00438857-11.80157081-9.54169541t-13.55925146-17.82790489-20.33887764-16.8235163-30.63386514-7.03072266q-9.03950068 0.50219472-15.81912685 2.51097276t-11.29937607 6.77962617-6.77962617 7.78401474-5.77523672 10.2949875-4.51975078 9.79279278q-11.04827872 18.58119698-20.589975 15.06583477t-14.0614462-24.60753106 3.51536133-48.71286738q10.04389013-35.15361504 0.50219472-97.92792862-5.02194463-32.64264316 9.03950069-50.47054804t36.66019922-16.57241895 42.6865333 17.82790488q29.62947568 24.60753105 44.94640869 33.39593438t51.97713135 21.34326621q26.61630908 9.03950068 38.66897724 18.3300996t9.29059805 17.32571016-12.55486289 14.31254356-25.86301699 11.8015708q-16.57241895 5.52413935-24.85862842 24.10533633t-7.53291738 36.40910185 7.78401474 23.85423897q0.50219472-15.56802949 4.01755606-28.37398975t7.28182002-20.33887763 10.2949875-14.31254356 10.54608486-9.54169541 10.79718223-6.52852881 8.28620947-4.77084815z"  horiz-adv-x="1024" />

    
    <glyph glyph-name="jingxiangcangku" unicode="&#59181;" d="M718.656 106.144c0-66.624-54.208-120.768-120.768-120.768-66.624 0-120.768 54.208-120.768 120.768 0 66.624 54.208 120.768 120.768 120.768C664.512 226.912 718.656 172.768 718.656 106.144zM965.824 232.096l0-311.68c0-40.96-33.216-74.24-74.24-74.24L304.128-153.824c-40.96 0-74.24 33.216-74.24 74.24l0 311.68c0 40.96 33.216 74.24 74.24 74.24l93.888 0 34.304 90.816c6.464 17.088 26.688 31.104 44.992 31.104l221.056 0c18.304 0 38.528-14.016 45.056-31.104l34.304-90.816 113.92 0C932.544 306.336 965.824 273.12 965.824 232.096zM795.136 106.144c0 108.8-88.512 197.312-197.312 197.312-108.8 0-197.312-88.512-197.312-197.312 0-108.8 88.512-197.312 197.312-197.312C706.624-91.168 795.136-2.656 795.136 106.144zM415.68 691.104l116.544 0 292.352-292.352 46.592 0c7.552 0 14.272 4.544 17.152 11.52 2.88 6.976 1.28 14.912-4.032 20.224L566.464 748.384C562.816 751.968 558.08 753.824 553.344 753.824l0 0L394.88 753.824c0 0 0 0-0.064 0-0.064 0-0.128 0-0.192 0-4.736 0-9.536-1.792-13.12-5.44L63.616 430.496C58.304 425.184 56.704 417.184 59.584 410.272c2.88-6.976 9.6-11.52 17.152-11.52l35.072 0 0-424.896c0-3.648 2.944-6.592 6.592-6.592l49.728 0c3.648 0 6.592 2.944 6.592 6.592L174.72 450.208 415.68 691.104z"  horiz-adv-x="1024" />

    
    <glyph glyph-name="next-copy" unicode="&#58945;" d="M512 891.623c279.9 0 507.623-227.725 507.624-507.624s-227.725-507.623-507.624-507.624-507.623 227.725-507.624 507.624 227.725 507.623 507.624 507.624zM512-60.171c244.921 0 444.171 199.251 444.171 444.171s-199.251 444.171-444.171 444.171-444.171-199.251-444.171-444.171 199.251-444.171 444.171-444.171zM586.034 641.39c8.118 0 16.235-3.099 22.432-9.295 12.393-12.393 12.393-32.471 0-44.863l-177.222-177.222c-12.363-12.363-12.363-32.501 0-44.863l177.221-177.223c12.393-12.393 12.393-32.471 0-44.865s-32.471-12.393-44.863 0l-177.222 177.222c-37.117 37.102-37.117 97.487 0 134.591l177.221 177.222c6.196 6.197 14.314 9.295 22.432 9.295z"  horiz-adv-x="1024" />

    
    <glyph glyph-name="error1" unicode="&#59041;" d="M512 896c-281.6 0-512-230.4-512-512s230.4-512 512-512 512 230.4 512 512S793.6 896 512 896zM761.6 179.2l-44.8-44.8-198.4 198.4-198.4-198.4-44.8 44.8 198.4 198.4-211.2 211.2 44.8 44.8 211.2-211.2 211.2 211.2 44.8-44.8-211.2-211.2L761.6 179.2z"  horiz-adv-x="1024" />

    
    <glyph glyph-name="cf-c08" unicode="&#58943;" d="M830.4 854.4h-640c-88 0-160-72-160-160v-640c0-88 72-160 160-160h640c88 0 160 72 160 160v640c0 88-72 160-160 160zM910.4 102.4c0-96-28.8-128-128-128h-544c-100.8 0-128 25.6-128 128v544c0 100.8 27.2 128 128 128h544c70.4 0 128-57.6 128-128v-544zM224 681.6h188.8v-619.2h-188.8v619.2zM467.2 678.4h329.6v-76.8h-329.6v76.8zM467.2 408h329.6v-76.8h-329.6v76.8zM467.2 139.2h329.6v-76.8h-329.6v76.8z"  horiz-adv-x="1024" />

    
    <glyph glyph-name="user2" unicode="&#58958;" d="M858.672 16.27h-46.495c-8.949 116.189-85.35 213.587-190.508 254.485-33.419-15.875-70.725-25.043-110.277-25.043s-76.858 9.149-110.277 25.043c-105.155-40.899-181.537-138.297-190.508-254.485h-46.495c8.295 124.087 83.188 229.997 189.595 283.617-59.355 46.218-97.595 117.739-97.595 198.227 0 139.407 114.284 252.402 255.28 252.402s255.28-112.995 255.28-252.402c0-80.489-38.241-152.009-97.595-198.227 106.406-53.619 181.298-159.529 189.595-283.617zM720.257 498.113c0 114.046-93.508 206.501-208.863 206.501s-208.863-92.455-208.863-206.501 93.508-206.501 208.863-206.501 208.863 92.455 208.863 206.501z"  horiz-adv-x="1024" />

    
    <glyph glyph-name="question" unicode="&#58885;" d="M511.999996 895.99999999c-282.48769399 0-511.48833602-229.001664-511.48833602-511.48833599s229.001664-511.48833602 511.48833602-511.48833599 511.48833602 229.001664 511.488336 511.48833599S794.48768995 895.99999999 511.999996 895.99999999zM511.999996-62.92102c-247.109771 0-447.43268402 200.32189098-447.43268402 447.432684s200.32189098 447.43268402 447.43268402 447.432684 447.43268402-200.32189098 447.432684-447.432684S759.109767-62.92102 511.999996-62.92102zM412.43352198 493.02229399c0 0 16.04407099 98.734317 114.778388 87.62594s76.518585-85.15809298 66.64515301-99.96824099c-9.87343199-24.683579-101.202164-83.92417001-116.01231199-119.71510401s-13.57622397-102.436087-13.576224-102.43608701l88.860886 4e-8c0 0-4.93671599 70.347945 44.43044299 99.96824096 49.367159 29.620295 133.29030599 116.01231202 96.26544801 198.70153602-59.24058998 95.03152499-117.24623498 104.904956-192.53089601 102.43608699S347.022292 620.141961 321.10478899 505.364595C382.81322599 496.72508701 412.43352198 493.02229399 412.43352198 493.02229399zM463.034604 225.20673598999997l92.56265599 0 2e-8-101.18887403-92.56265601 5e-8 0 101.18887398Z"  horiz-adv-x="1024" />

    
    <glyph glyph-name="datepicker" unicode="&#58898;" d="M829.36242781-15.351319689999968L189.69884-15.351319689999968c-50.46754312 0-91.38092343 40.91338031-91.38092343 91.38092344L98.31791655 624.31226812c0 50.46754312 40.91338031 91.38092343 91.38092345 91.38092343l137.07090562 0L326.76974656 761.3822146800001c0 12.61736531 10.2276253 22.84499156 22.84499157 22.84499157 12.61736531 0 22.84499156-10.2276253 22.84499156-22.84499155l0-45.68998219L646.60154 715.6922325099999 646.60154 761.3822146800001c0 12.61736531 10.2276253 22.84499156 22.84499155 22.84499157s22.84499156-10.2276253 22.84499157-22.84499155l0-45.68998219 137.07090563 0c50.46946125 0 91.38092343-40.91338031 91.38092344-91.38092344l0-548.28266438C920.74335219 25.56206063000002 879.83189-15.351319689999968 829.36242781-15.351319689999968zM875.05241 624.31226812c0 25.23473062-20.45525156 45.6899822-45.68998219 45.6899822L692.29152219 670.00225032l0-45.68998219c0-12.61736531-10.2276253-22.84499156-22.84499157-22.84499157s-22.84499156 10.2276253-22.84499155 22.84499157l0 45.68998219L372.45972875 670.00225032l0-45.68998219c0-12.61736531-10.2276253-22.84499156-22.84499156-22.84499157-12.61736531 0-22.84499156 10.2276253-22.84499156 22.84499157l0 45.68998219L189.69884 670.00225032c-25.23473062 0-45.6899822-20.45525156-45.6899822-45.68998219l0-91.38092343 731.0435522 0L875.05241 624.31226812zM875.05241 487.2413625l-731.0435522 0 0-411.21175875c0-25.23473062 20.45525156-45.6899822 45.6899822-45.6899822l639.66358781 0c25.23473062 0 45.6899822 20.45525156 45.68998219 45.6899822L875.05241 487.2413625zM692.29152219 167.40956812000002L646.60154 167.40956812000002c-12.61736531 0-22.84499156 10.2276253-22.84499156 22.84499157s10.2276253 22.84499156 22.84499156 22.84499156l45.68998219 0c12.61736531 0 22.84499156-10.2276253 22.84499156-22.84499156S704.9088875 167.40956812000002 692.29152219 167.40956812000002zM692.29152219 304.48047469999995L646.60154 304.48047469999995c-12.61736531 0-22.84499156 10.2276253-22.84499156 22.84499155 0 12.61736531 10.2276253 22.84499156 22.84499156 22.84499156l45.68998219 0c12.61736531 0 22.84499156-10.2276253 22.84499156-22.84499156C715.13651375 314.70809999999994 704.9088875 304.48047469999995 692.29152219 304.48047469999995zM532.375625 167.40956812000002l-45.68998219 1e-8c-12.61736531 0-22.84499156 10.2276253-22.84499156 22.84499156s10.2276253 22.84499156 22.84499156 22.84499156l45.68998219 0c12.61736531 0 22.84499156-10.2276253 22.84499156-22.84499156S544.9929903 167.40956812000002 532.375625 167.40956812000002zM532.375625 304.48047469999995l-45.68998219 0c-12.61736531 0-22.84499156 10.2276253-22.84499156 22.84499155 0 12.61736531 10.2276253 22.84499156 22.84499156 22.84499156l45.68998219 0c12.61736531 0 22.84499156-10.2276253 22.84499156-22.84499156C555.22157562 314.70809999999994 544.9929903 304.48047469999995 532.375625 304.48047469999995zM349.61473719 167.40956812000002l-45.68998219 1e-8c-12.61736531 0-22.84499156 10.2276253-22.84499155 22.84499156s10.2276253 22.84499156 22.84499155 22.84499156l45.68998219 0c12.61736531 0 22.84499156-10.2276253 22.84499156-22.84499156S362.2321025 167.40956812000002 349.61473719 167.40956812000002zM349.61473719 304.48047469999995l-45.68998219 0c-12.61736531 0-22.84499156 10.2276253-22.84499155 22.84499155 0 12.61736531 10.2276253 22.84499156 22.84499155 22.84499156l45.68998219 0c12.61736531 0 22.84499156-10.2276253 22.84499156-22.84499156C372.45972875 314.70809999999994 362.2321025 304.48047469999995 349.61473719 304.48047469999995z"  horiz-adv-x="1024" />

    
    <glyph glyph-name="xinfeng" unicode="&#58989;" d="M567.38576426 379.40433066l137.22494605 134.865126c-3.12795266 6.5349611-9.80098318 11.04895557-17.52995293 11.0489556L337.44137833 525.3184122299999c-7.72896976 0-14.40200026-4.51399449-17.52995294-11.04895557l137.22494606-134.865126C487.58018925 360.21122477999995 536.94146031 360.21122477999995 567.38576426 379.40433066zM318.01686035 487.47572721l1e-8-216.43303056 114.06185858 108.49338335L318.01686035 487.47572721zM592.44293062 379.53607999999997l114.06185859-108.49338335L706.50478919 487.47572721 592.44293062 379.53607999999997zM574.57558271 362.62743937000005c-34.41525787-21.84073258-90.21377187-21.84073258-124.62902971 0l-5.13870992 4.86257114L320.21284451 244.40842765000002c3.24074176-6.21215092 9.73681008-10.45584055 17.2285338-10.45584052L687.0807574 233.95258712999998c7.49172375 0 13.9882782 4.24368962 17.2285338 10.45584052L579.71429267 367.49049665999996 574.57558271 362.62743937000005z"  horiz-adv-x="1025" />

    
    <glyph glyph-name="wushuju" unicode="&#58954;" d="M483.996 503.643c224.492 0 406.401 80.935 406.401 180.887 0 99.945-181.909 180.882-406.401 180.882-224.489 0-406.401-80.935-406.401-180.882C77.595 584.578 259.507 503.643 483.996 503.643L483.996 503.643zM483.996 315.711c5.97 0 11.775 0.29 17.68 0.4 38.402 82.907 122.132 140.547 219.512 140.547 47.66 0 91.965-13.965 129.425-37.747 25.245 23.557 39.785 49.83 39.785 77.682L890.398 634.906c0-99.952-181.909-180.887-406.401-180.887-224.487 0-406.401 80.935-406.401 180.887l0-138.312C77.595 396.651 259.507 315.711 483.996 315.711L483.996 315.711zM483.996 127.782c3.845 0 7.572 0.205 11.387 0.25-10.33 26.92-16.23 56.04-16.23 86.59 0 17.685 2.007 34.88 5.605 51.48-0.26 0-0.505-0.015-0.762-0.015-224.489 0-406.401 80.935-406.401 180.882l0-138.307C77.595 208.722 259.507 127.782 483.996 127.782L483.996 127.782zM653.963-17.568c-54.925 15.83-101.915 50.345-133.24 96.55-12.12-0.485-24.33-0.825-36.727-0.825-224.492 0-406.401 80.935-406.401 180.885l0-138.31c0-99.95 181.912-180.885 406.401-180.885 62.737 0 121.842 6.555 174.837 17.885-3.32 6.8-5.185 14.235-5.185 22.05C653.648-19.308 653.918-18.468 653.963-17.568L653.963-17.568zM722.828-14.508c-125.62 0-227.444 101.83-227.444 227.444s101.825 227.444 227.444 227.444c125.615 0 227.444-101.83 227.444-227.444S848.443-14.508 722.828-14.508L722.828-14.508zM828.418 319.376 828.418 319.376c-10.65 10.645-27.905 10.645-38.55 0l-67.56-67.555-66.7 66.7c-10.6 10.605-27.795 10.605-38.4 0l0 0c-10.605-10.61-10.605-27.8 0-38.405l66.7-66.695-67.52-67.525c-10.65-10.645-10.65-27.895 0-38.545l0 0c10.645-10.645 27.9-10.645 38.55 0l67.52 67.52 67.55-67.56c10.61-10.595 27.8-10.595 38.4 0l0 0.01c10.61 10.605 10.61 27.79 0 38.395l-67.55 67.555 67.56 67.56C839.063 291.477 839.063 308.732 828.418 319.376L828.418 319.376z"  horiz-adv-x="1024" />

    
    <glyph glyph-name="app" unicode="&#58947;" d="M878.159424 330.59365l-327.396585 0c-11.307533 0-20.466124-9.168824-20.466124-20.466124l0-327.396585c0-11.307533 9.15859-20.466124 20.466124-20.466124l327.396585 0c11.2973 0 20.466124 9.15859 20.466124 20.466124l0 327.396585C898.625548 321.424826 889.456724 330.59365 878.159424 330.59365zM857.6933 3.197064l-286.464337 0 0 286.464337 286.464337 0L857.6933 3.197064zM430.606225 330.59365l-327.396585 0c-11.2973 0-20.466124-9.168824-20.466124-20.466124l0-327.396585c0-11.307533 9.168824-20.466124 20.466124-20.466124l327.396585 0c11.307533 0 20.466124 9.15859 20.466124 20.466124l0 327.396585C451.072349 321.424826 441.913758 330.59365 430.606225 330.59365zM410.140101 3.197064l-286.464337 0 0 286.464337 286.464337 0L410.140101 3.197064zM430.606225 780.398122l-327.396585 0c-11.2973 0-20.466124-9.15859-20.466124-20.466124l0-327.386352c0-11.307533 9.168824-20.466124 20.466124-20.466124l327.396585 0c11.307533 0 20.466124 9.15859 20.466124 20.466124l0 327.386352C451.072349 771.239532 441.913758 780.398122 430.606225 780.398122zM410.140101 453.01177l-286.464337 0 0 286.454104 286.464337 0L410.140101 453.01177zM965.529307 618.255255l-214.433814 214.433814c-3.837398 3.837398-9.046027 5.996574-14.46955 5.996574-5.433756 0-10.632151-2.159176-14.479783-5.996574l-214.433814-214.433814c-7.992021-7.992021-7.992021-20.957311 0-28.949332l214.433814-214.433814c4.001127-3.990894 9.240455-5.996574 14.479783-5.996574 5.229095 0 10.468422 2.00568 14.46955 5.996574l214.433814 214.433814c3.837398 3.837398 5.996574 9.046027 5.996574 14.46955C971.525881 609.209228 969.366705 614.417857 965.529307 618.255255zM736.625944 418.290991l-185.494715 185.484482 185.494715 185.494715 185.484482-185.494715L736.625944 418.290991z"  horiz-adv-x="1024" />

    
    <glyph glyph-name="2" unicode="&#58880;" d="M752.56 129c3.9 31.9 2.6 64.3-0.6 94.9 15.8 6.8 25.8 17.8 29.4 33.4 23.6-0.4 46.4 1.1 70.6 8.8-20.3-56.1-53.8-98.2-96.6-134.8-2.8-2.3-2.8-2.3-2.8-2.3zM482.46 63.2c64.1 75.9 147 135.1 201.4 168.8 7.7-6.6 18.7-12.7 29-14.8 3.8-37.2 1.1-75.1-3-117.4-52.8-29.9-102.1-43.6-162.4-43.6-24.3 0-39.7 1.1-62.5 6.2M280.86 194.7c5.6 37.7 19.8 100.8 60.2 170.4 4.4-1 12.3-2.3 17-2.3 9.8 0 19.2 1.2 27.3 6.8 67-49.5 156.1-89.2 271.8-103.4-70.8-34.2-158.6-99.2-222.1-189.5-64.1 23.7-111.3 59-151.1 114.4M250.46 514.4c9.8-19.9 23.5-43 48-63.5-3.1-9.3-4.6-17.4-4.6-24.9 0-14.1 3.5-29.2 13.1-39-32.1-46.3-49-98.4-56.4-139.3-19.5 40.2-28.6 87.5-28.6 134.1 0 46.6 10 90.9 27.8 131-0.1-0.1-1.2-1.8 0.7 1.6zM408.76 675.7c20.7-11.1 49.8-28.7 82.4-54.1-3.4-7.5-5.3-15.9-5.3-24.6 0-4.9 0.7-9.6 1.9-14.3-43.8-30.5-78.8-62.5-108.9-97-6.2 2.2-16.2 4.5-23.2 4.5-11.1 0-22.6-3-31.5-8.2-20.6 20-41.1 53.3-51.2 73.7 32.9 52.8 79.2 93.2 135.8 120M684.76 676.4c-34.3-10.5-66.3-22.5-95.6-36-11 10.7-25.9 17.4-42.5 17.4-9.9 0-16.9-1.6-25.2-5.8-22.4 17.7-42.3 32-60.5 43.2 28.6 8.2 55.3 11.9 86.5 11.9 49.2 0 95.6-11.2 137.3-30.7M413.76 460.6c27.7 31.4 58.6 58.6 98.5 86.6 10.2-7.7 20.7-11 34.5-11 9.9 0 17.2 1.7 25.5 5.9 46.4-53.2 93.5-120.8 119.5-209.1-11.9-5.1-20.4-14.7-24.3-26.3-107.9 12.4-188.9 51.6-251.8 96.9 3.9 7.3 5 13.6 5 22.4 0 11.7-2.8 22.2-8.5 31.5M873.16 381.7c0-23.6-0.5-46.1-6.9-67.1-25.1-8-54.5-15-84.3-15-6.5 22.2-27.1 40.4-48.5 40.8-18.8 96-76.3 178.5-130.5 233.6 3.3 7.5 4.6 14.3 4.6 23 0 2.4-0.4 4.6-0.7 6.9 37.8 17.5 79.9 32.6 126.8 44.5 84.2-58.9 139.5-156.4 139.5-266.7M547.56 759.5c-209.1 0-379.2-169.6-379.2-378s170.1-378 379.2-378c209.1 0 379.2 169.6 379.2 378 0 208.4-170.1 378-379.2 378z"  horiz-adv-x="1099" />

    
    <glyph glyph-name="qiehuan" unicode="&#59075;" d="M894.981555 640.728082 767.215636 640.728082 767.215636 768.496048c0 35.282574-28.601408 63.882959-63.882959 63.882959L128.381949 832.379007c-35.282574 0-63.883983-28.601408-63.883983-63.882959l0-574.950727c0-35.282574 28.600385-63.883983 63.883983-63.883983L256.147868 129.661338l0-127.766942c0-35.282574 28.601408-63.882959 63.883983-63.882959l574.949704 0c35.282574 0 63.883983 28.600385 63.883983 63.882959L958.865537 576.846146C958.865537 612.128721 930.265152 640.728082 894.981555 640.728082L894.981555 640.728082zM894.981555 1.894396 320.03185 1.894396 320.03185 129.661338 703.332676 129.661338c35.282574 0 63.882959 28.601408 63.882959 63.883983L767.215636 576.846146l127.767965 0L894.981555 1.894396 894.981555 1.894396z"  horiz-adv-x="1024" />

    
    <glyph glyph-name="2_8openstack" unicode="&#59070;" d="M292.32 541.504a49.744 49.744 0 0 0 49.744 49.728l339.888 24.88a49.744 49.744 0 0 0 49.728-49.744v-1.744l161.664 14.592v121.872A82.88 82.88 0 0 1 810.448 784l-596.88-49.728a82.928 82.928 0 0 1-82.912-82.912v-140.96l161.664 14.592v16.512zM893.344 524.096l-161.664-14.592v-213.952l161.664 14.608zM292.32 469.856l-161.664-14.576v-213.968l161.664 14.608zM731.68 226.48a49.744 49.744 0 0 0-49.728-49.744l-339.888-24.864a49.744 49.744 0 0 0-49.712 48.912l-161.696-14.592v-119.28A82.928 82.928 0 0 1 213.568-16l596.88 49.744a82.88 82.88 0 0 1 82.896 82.896v138.368l-161.664-14.576v-13.952z"  horiz-adv-x="1024" />

    
    <glyph glyph-name="company" unicode="&#58962;" d="M937.521622 32.688563h-43.003184V473.273585c0 40.476235-32.929176 73.405411-73.405411 73.405411H621.141056V708.76721c0 40.476235-32.929176 73.405411-73.40541 73.405411H169.293295c-40.476235 0-73.405411-32.929176-73.40541-73.405411v-676.078647h-12.286624c-8.481866 0-15.35828-6.876414-15.35828-15.35828s6.876414-15.35828 15.35828-15.35828h853.920361c8.481866 0 15.35828 6.876414 15.358279 15.35828s-6.876414 15.35828-15.358279 15.35828z m-810.917178 0V708.76721c0 23.539124 19.149727 42.688851 42.688851 42.688851h378.442351c23.539124 0 42.688851-19.149727 42.68885-42.688851v-676.078647h-463.820052z m494.536612 0v483.273873h199.971971c23.539124 0 42.688851-19.149727 42.688851-42.688851v-440.585022h-242.660822zM204.419729 561.013391h105.460188c8.481866 0 15.35828 6.876414 15.35828 15.358279s-6.876414 15.35828-15.35828 15.35828h-105.460188c-8.481866 0-15.35828-6.876414-15.35828-15.35828s6.876414-15.35828 15.35828-15.358279zM204.419729 376.714032h105.460188c8.481866 0 15.35828 6.876414 15.35828 15.35828s-6.876414 15.35828-15.35828 15.35828h-105.460188c-8.481866 0-15.35828-6.876414-15.35828-15.35828s6.876414-15.35828 15.35828-15.35828zM408.172909 561.013391h105.460188c8.481866 0 15.35828 6.876414 15.35828 15.358279s-6.876414 15.35828-15.35828 15.35828h-105.460188c-8.481866 0-15.35828-6.876414-15.35828-15.35828s6.876414-15.35828 15.35828-15.358279zM408.172909 376.714032h105.460188c8.481866 0 15.35828 6.876414 15.35828 15.35828s-6.876414 15.35828-15.35828 15.35828h-105.460188c-8.481866 0-15.35828-6.876414-15.35828-15.35828s6.876414-15.35828 15.35828-15.35828zM204.419729 192.414674h105.460188c8.481866 0 15.35828 6.876414 15.35828 15.358279s-6.876414 15.35828-15.35828 15.35828h-105.460188c-8.481866 0-15.35828-6.876414-15.35828-15.35828s6.876414-15.35828 15.35828-15.358279zM408.172909 192.414674h105.460188c8.481866 0 15.35828 6.876414 15.35828 15.358279s-6.876414 15.35828-15.35828 15.35828h-105.460188c-8.481866 0-15.35828-6.876414-15.35828-15.35828s6.876414-15.35828 15.35828-15.358279zM681.55029 350.093014h105.460189c8.481866 0 15.35828 6.876414 15.35828 15.358279s-6.876414 15.35828-15.35828 15.35828h-105.460189c-8.481866 0-15.35828-6.876414-15.35828-15.35828s6.876414-15.35828 15.35828-15.358279zM681.55029 165.793655h105.460189c8.481866 0 15.35828 6.876414 15.35828 15.35828s-6.876414 15.35828-15.35828 15.35828h-105.460189c-8.481866 0-15.35828-6.876414-15.35828-15.35828s6.876414-15.35828 15.35828-15.35828z"  horiz-adv-x="1024" />

    
    <glyph glyph-name="guanbi" unicode="&#58950;" d="M512 875.52c-271.36 0-491.52-220.16-491.52-491.52s220.16-491.52 491.52-491.52 491.52 220.16 491.52 491.52-220.16 491.52-491.52 491.52zM460.288 267.776c0-17.92-14.336-32.256-32.256-32.256s-32.256 14.336-32.256 32.256v232.96c0 17.92 14.336 32.256 32.256 32.256s32.256-14.336 32.256-32.256V267.776z m167.424 0c0-17.92-14.336-32.256-32.256-32.256s-32.256 14.336-32.256 32.256v232.96c0 17.92 14.336 32.256 32.256 32.256s32.256-14.336 32.256-32.256V267.776z"  horiz-adv-x="1024" />

    
    <glyph glyph-name="xinfengdakai" unicode="&#59126;" d="M594.04914898 431.42384534c0-4.54249763-3.71707877-8.25584554-8.25916196-8.25584555L437.15989508 423.16799978c-4.54125386 0-8.25584554 3.71334789-8.25584553 8.25584555l0 0c0 4.54249763 3.71459167 8.25584554 8.25584553 8.25584554l148.63009194 0C590.33206979 439.68010531 594.04914898 435.96675741 594.04914898 431.42384534L594.04914898 431.42384534 594.04914898 431.42384534zM594.04914898 398.21887965c0-4.54249763-3.71707877-8.25957639-8.25916196-8.25957641L437.15989508 389.95930324c-4.54125386 0-8.25584554 3.71749363-8.25584553 8.25957641l0 0c0 4.53876637 3.71459167 8.25626 8.25584553 8.25625997l148.63009194 0C590.33206979 406.47472518 594.04914898 402.7576464 594.04914898 398.21887965L594.04914898 398.21887965 594.04914898 398.21887965zM594.72366218 364.85927785c0-4.54083943-3.71666433-8.25916194-8.25584554-8.25916196L437.83565204 356.60011588c-4.53918121 0-8.25667443 3.71832253-8.25667443 8.25916198l0 0c0 4.53876637 3.71749363 8.25750374 8.25667443 8.25750373L586.46781664 373.11678158999996C591.00699786 373.11678158999996 594.72366218 369.39804418999995 594.72366218 364.85927785L594.72366218 364.85927785 594.72366218 364.85927785zM688.99261473 420.80948304c-0.92740425 1.92777342-1.99742189 3.50854778-3.20839551 4.64697055L537.24367552 564.85769273c-13.80119983 12.94841909-36.3859989 12.94841909-50.1851261 0L338.51883502 425.45645359c-1.2109732-1.13552079-2.28057682-2.71919713-3.20880996-4.64448302-3.04173626-4.74522469-4.81694621-10.38137096-4.81694624-16.41841158l0-197.41644203c0-16.72063653 13.56779407-30.40534069 30.15037738-30.40534069l303.01697153 0c16.58175398 0 30.14996253 13.68470418 30.14996255 30.40534069l0 197.41644203C693.80997541 410.43101366 692.03476586 416.06716034 688.99261473 420.80948304L688.99261473 420.80948304zM439.49146438 296.53152314L365.20668248 199.40324718c-2.76065442-3.60431441-7.96730113-4.3008004-11.57576167-1.54221865-3.60597301 2.76023997-4.3008004 7.967716-1.54180419 11.57659056l74.283953 97.12578846c2.76189818 3.60555816 7.96730113 4.3008004 11.57659057 1.54221864C441.55521834 305.34704481999995 442.25004614 300.13832505000005 439.49146438 296.53152314L439.49146438 296.53152314zM675.12218085 197.86144298c-3.60555816-2.75858177-8.8146924-2.0625102-11.57327412 1.54221864L589.26205175 296.53152314c-2.75816691 3.60680192-2.06375395 8.81593615 1.54221865 11.5745179s8.81759436 2.06375395 11.57576166-1.54221865L676.66357063 209.4376191C679.42256682 205.82874452 678.73105586 200.62168295000004 675.12218085 197.86144298L675.12218085 197.86144298zM627.61023404 364.96333633999996c-0.60610848-0.75162425-1.3034238-1.36685349-2.09484709-1.80879067L528.53511424 286.94323410000004c-9.0116155-5.03957301-23.75555875-5.03957301-32.76717425 0l-96.98068714 76.21131157c-0.79142372 0.44193676-1.48625112 1.05758086-2.09443267 1.80879066-1.98332649 1.844444-3.14206346 4.03630148-3.14206344 6.38528342L393.55075675 448.15567525c0 6.50675369 8.85656453 11.82906677 19.68526212 11.82906675l197.83308997 0c10.82579563 0 19.68484728-5.32231307 19.68484729-11.82906674l0-76.80705594C630.75478504 368.99963779999996 629.59646253 366.8077799 627.61023404 364.96333633999996"  horiz-adv-x="1024" />

    
    <glyph glyph-name="lecloud_jingxiangguanli" unicode="&#59009;" d="M492.088889 435.458586h51.070707v51.070707h-51.070707v-51.070707z m0-102.141414h51.070707v51.070707h-51.070707v-51.070707z m0-102.270707h51.070707v51.070707h-51.070707v-51.070707z m0-102.141414h51.070707v51.070707h-51.070707v-51.070707z m0-102.270708h51.070707v51.070708h-51.070707v-51.070708z m0-102.141414h51.070707v51.070707h-51.070707v-51.070707zM696.50101 742.141414C270.092929 863.418182 236.606061 537.729293 236.606061 537.729293c153.341414 241.131313 357.753535 102.141414 357.753535 102.141414l-102.141414-102.141414h306.553535V844.282828l-102.270707-102.141414zM943.967677-36.20202V447.224242L630.820202 205.575758l313.147475-241.777778zM80.032323 447.224242V-36.20202l313.147475 241.777778L80.032323 447.224242z"  horiz-adv-x="1024" />

    
    <glyph glyph-name="log" unicode="&#59040;" d="M815.787 759.467h-64.853v-44.373c6.827-10.24 10.24-20.48 10.24-30.72 0-34.133-27.307-61.44-61.44-61.44s-61.44 27.307-61.44 61.44c0 10.24 3.413 23.893 10.24 30.72v44.373h-81.92v-44.373c6.827-10.24 10.24-20.48 10.24-30.72-3.413-34.133-30.72-61.44-64.853-61.44s-61.44 27.307-61.44 61.44c0 10.24 3.413 23.893 10.24 30.72v44.373h-81.92v-44.373c6.827-10.24 10.24-20.48 10.24-34.133 0-30.72-27.307-58.027-58.027-58.027-34.133 0-61.44 27.307-61.44 61.44 0 10.24 3.413 23.893 10.24 30.72v44.373h-68.267c-23.893 0-40.96-17.067-40.96-37.547v-675.84c0-40.96 30.72-71.68 71.68-71.68h539.307c40.96 0 71.68 30.72 71.68 71.68v675.84c0 20.48-17.067 37.547-37.547 37.547zM754.347 179.2c0-20.48-13.653-34.133-34.133-34.133h-413.013c-20.48 0-34.133 13.653-34.133 34.133v341.333c0 20.48 13.653 34.133 34.133 34.133h409.6c20.48 0 34.133-13.653 34.133-34.133v-341.333zM696.32 650.24c17.067 0 30.72 13.653 30.72 30.72v81.92c0 17.067-13.653 30.72-27.307 30.72-17.067 0-30.72-13.653-30.72-30.72v-81.92c-3.413-17.067 10.24-30.72 27.307-30.72zM331.093 650.24c17.067 0 30.72 13.653 30.72 30.72v81.92c0 17.067-13.653 30.72-27.307 30.72-20.48 0-34.133-13.653-34.133-30.72v-81.92c0-17.067 13.653-30.72 30.72-30.72zM512 650.24c17.067 0 30.72 13.653 30.72 30.72v81.92c0 17.067-13.653 30.72-30.72 30.72s-30.72-13.653-30.72-30.72v-81.92c3.413-17.067 13.653-30.72 30.72-30.72zM341.333 384h341.333v-68.267h-341.333zM341.333 496.64h341.333v-68.267h-341.333zM341.333 267.947h341.333v-68.267h-341.333z"  horiz-adv-x="1024" />

    
    <glyph glyph-name="xunizhuanyouwangVPC" unicode="&#59046;" d="M773 413.4c15.7-9.4 26.8-25.7 29.2-44.6 45.9-6 94.8-9.5 146.6-9.7-23.6 70.4-82.6 124.4-155.9 141-3.3-18.7-9.6-49.3-19.9-86.7zM423.7 496.7c-2 4.3-3.3 6.9-3.3 6.9l27.3 12.9s1.8-3.7 4.5-9.4c7 2.8 14.6 4.5 22.7 4.5 33.4 0 60.5-27.1 60.5-60.5 0-3.5-0.4-6.8-0.9-10 45.1-19.1 96-36.6 152.9-50.5 10.5 19 30.7 31.9 53.9 31.9 1 0 1.9-0.1 2.9-0.1 9.8 35.6 16 64.7 19.4 82.6-6 0.5-11.9 0.8-18 0.8-14.1 0-28-1.4-41.3-4C687 604.9 597 683.9 488.6 683.9c-77.6 0-145.7-40.5-184.6-101.5 24.1-21.2 63.9-52.8 119.7-85.7z m-23.2 134s6.9-19.6 14.5-38.9c3.9-9.7 7.7-19.3 10.8-26.5 3.1-7.2 5.1-12 5.1-12l-27.8-12s-2 4.9-5.1 12.3c-3.2 7.3-7.2 17.1-11.1 27.1-7.9 19.7-14.9 39.8-14.9 39.8l28.5 10.2zM624.5 154.2c-9.1 8.3-14.8 20.1-14.8 33.5 0 25.2 20.4 45.6 45.6 45.6 5.4 0 10.5-1.1 15.2-2.7 13.8 26.5 25.7 53.2 36.1 79.3-16.3 11.1-26.9 29.7-26.9 50.9 0 0.3 0.1 0.7 0.1 1-58.4 14.4-110.8 32.5-157.2 52.2-3.7-4.9-8.2-9.1-13.2-12.6 4-6.7 11-18.1 18.4-29.4 5.5-8.8 11.4-17.4 15.7-23.8 4.4-6.5 7.3-10.8 7.3-10.8L526 320.2s-2.9 4.4-7.5 11c-4.5 6.5-10.5 15.4-16.1 24.4-10.1 15.4-19.4 31.1-21.8 35.2-1.9-0.2-3.8-0.3-5.8-0.3-33.4 0-60.5 27.1-60.5 60.5 0 5.4 0.8 10.7 2.1 15.7-57.8 33.3-100 65.9-126.9 89-12.6-27.6-19.7-58.3-19.7-90.6 0-7.1 0.4-14.2 1-21.1-7.6 1-15.4 1.6-23.3 1.6C146.2 445.6 64 363.4 64 261.9c0-101.4 82.2-183.6 183.6-183.6h312.1c24.1 22.8 45.7 48.5 64.8 75.9z m-50 150.2s3.1-4.2 7.9-10.4c4.8-6.2 11.1-14.4 17.5-22.5 6.6-8 13.2-16 18.1-22.1 4.9-6.1 8.4-9.9 8.4-9.9l-22.9-19.7s-3.6 4-8.6 10.1c-5.1 6.2-11.8 14.4-18.6 22.6-6.5 8.4-13 16.8-17.9 23.2-4.9 6.3-8.1 10.6-8.1 10.6l24.2 18.1zM953.5 329.4c-54.7 0-106.2 3.7-154.5 10.1-8.7-23.5-31.2-40.3-57.8-40.3-2 0-4.2 0.1-6.2 0.4-11.6-29-25-58.9-40.7-88.5 4.1-6.9 6.6-14.8 6.6-23.3 0-7.8-2.2-15.2-5.6-21.6 2.5-2.4 5-4.9 7.1-6.9 2.7-2.8 5.1-4.9 6.8-6.5 1.7-1.6 2.6-2.4 2.6-2.4l-20.7-22s-1 0.9-2.7 2.5c-1.7 1.5-4.2 3.8-7 6.7-2.4 2.4-5.3 5.3-8.3 8.2-5.5-2.3-11.5-3.6-17.8-3.6-0.9 0-1.7 0.2-2.6 0.2-15.4-22.4-32.5-43.9-51.2-63.9h117.4c8.7-1.1 17.6-1.7 26.7-1.7 1.4 0 2.8 0.1 4.2 0.1-6.6 5.4-12.7 10.8-17.6 14.9-6.1 5.2-10.2 8.7-10.2 8.7l19.9 22.7s4-3.4 9.9-8.4c6-5 13.7-12 21.9-18.3 6.5-5.1 13-10.2 18.4-14.5 96 21 167.9 106.6 167.9 209 0 13.1-1.3 25.9-3.5 38.4h-3z"  horiz-adv-x="1024" />

    
    <glyph glyph-name="add" unicode="&#58967;" d="M521.927093-83.862757h-0.072654c-122.31272 0-237.325174 47.651276-323.848783 134.175909-86.519516 86.518492-134.157489 201.543226-134.13907 323.884598 0 122.333186 47.651276 237.357919 134.175909 323.881528 86.523609 86.524632 201.548342 134.175909 323.883575 134.175909 122.384351 0 237.395782-47.650253 323.920414-134.174885 86.519516-86.519516 134.157489-201.544249 134.13907-323.885622 0-122.381281-47.637973-237.418294-134.13907-323.918367-86.482677-86.482677-201.51969-134.12065-323.919391-134.13907z m-0.002046 843.013972c-102.803387 0-199.468984-40.048111-272.187169-112.767319-72.719208-72.718185-112.76732-169.383782-112.76732-272.187169 0-102.826923 40.035832-199.491497 112.731504-272.187169 72.718185-72.718185 169.397085-112.76732 272.222985-112.76732 102.850459 0 199.528336 40.035832 272.222985 112.731504 72.695672 72.694649 112.731504 169.372525 112.731504 272.222985 0 102.827947-40.035832 199.49252-112.731504 272.187169-72.718185 72.718185-169.396061 112.76732-272.222985 112.767319zM721.791074 337.62581h-399.732054c-9.766434 0-18.946514 3.801583-25.848715 10.703783-6.9022 6.9022-10.703783 16.08228-10.703782 25.847691 0 20.155039 16.397459 36.552497 36.552497 36.552497h399.732054c20.155039 0 36.552497-16.397459 36.552497-36.552497s-16.397459-36.551474-36.552497-36.551474zM485.372549 174.31228v399.732054c0 9.766434 3.801583 18.946514 10.703783 25.848715 6.9022 6.9022 16.08228 10.703783 25.847692 10.703782 20.155039 0 36.552497-16.397459 36.552497-36.552497v-399.732054c0-20.155039-16.397459-36.552497-36.552497-36.552497s-36.551474 16.397459-36.551475 36.552497z"  horiz-adv-x="1024" />

    
    <glyph glyph-name="vmware" unicode="&#58961;" d="M825.6 848H449.856c-84.992 0-150.272-65.152-150.272-149.696v-104.256H198.272C113.28 594.048 48 528.832 48 444.224v-374.528c0-84.608 65.28-149.76 150.272-149.76h372.48c84.928 0 150.336 65.152 150.336 149.76v107.52H825.6c84.928 0 150.272 65.152 150.272 149.824V701.504C979.2 779.712 910.592 848 825.6 848z m39.232-524.288a39.68 39.68 0 0 0-39.168-38.976h-212.48v-214.912a39.68 39.68 0 0 0-39.168-39.04H198.272a39.68 39.68 0 0 0-39.232 39.04v374.4a39.68 39.68 0 0 0 39.232 39.104h212.352V698.304c0 22.72 19.584 38.976 39.232 38.976H825.6a39.68 39.68 0 0 0 39.168-38.976v-374.592zM515.2 636.352v-244.16H263.616v-250.688H515.2V385.6h251.52V636.352z"  horiz-adv-x="1024" />

    
    <glyph glyph-name="fuwuqizhuangtai" unicode="&#59151;" d="M458.0352 712.3968H567.296v-657.59232H458.0352zM21.0944 493.2608h109.2608v-219.19744H21.0944zM239.5136 602.8288h109.2608v-438.39488H239.5136zM676.4544 602.8288h109.2608v-438.39488H676.4544zM894.8736 493.2608h109.2608v-219.19744H894.8736z"  horiz-adv-x="1024" />

    
    <glyph glyph-name="taocanshuaidan" unicode="&#59071;" d="M889.694014-15.336464H533.693614c-17.498151 0-31.619466 14.121315-31.619466 31.517138v276.286599c0 17.395823 14.223643 31.619466 31.619466 31.619466h151.241332c7.367643 0 14.018987-3.888478 17.395822-10.130508l15.246928-27.62866h131.594284c18.112122 0 32.745078-20.363346 32.745078-37.759169v-25.172779c17.498151 0 39.294094-20.261017 39.294094-37.759169v-169.558109c0.102328-17.293495-14.121315-31.41481-31.517138-31.414809z m-46.968722 250.49985c0 7.469971-6.242031 13.507345-14.018986 13.507344h-90.253623l13.916658-25.172779h90.355951v11.665435z m39.294094-67.946038c0 10.232837-8.697911 18.623763-19.44239 18.623763H740.396922c-7.367643 0-14.018987 3.888478-17.395823 10.130509l-45.331468 82.067353c-2.865194 5.116419-8.390926 8.390926-14.4283 8.390926H557.740781c-9.004897 0-16.372539-7.060658-16.372539-15.656241v-232.592385c0-8.697911 7.367643-15.656241 16.372539-15.656241h307.906066c9.004897 0 16.372539 7.060658 16.372539 15.656241V167.217348z m-681.916258 494.246028h86.672129v-87.081443h-86.672129v87.081443z m86.672129-235.559908h-86.672129v87.081443h86.672129v-87.081443z m148.887779-0.204657H324.227441v25.479764h111.435595v-25.479764z m0 62.010992H324.227441v25.070451h111.435595V487.709803zM324.227441 661.463376h111.435595v-25.070451H324.227441v25.070451z m111.435595-86.979115H324.227441v25.479764h111.435595v-25.479764z m321.925052-190.433097h-48.503647V494.463476l-2.455881 4.911761h2.455881l-8.288598 11.665435 5.832717-11.665435h-133.026881c-44.103528 0-85.853503 33.25672-88.104727 92.30019V734.832817H231.006296c-44.103528 0-79.816129-23.330868-79.816129-67.434396v-554.312781c0-44.103528 23.330868-79.918457 67.434396-79.918457H442.109723v-48.503647H182.502648c-44.103528 0-79.816129 35.81493-79.816129 79.816128V703.520336c0 44.103528 35.712601 79.816129 79.816129 79.816128h351.395623l16.577196-0.204656 207.21495-217.345458-0.102329-22.0006v-159.734586zM534.0006 726.032577v-102.430698c0-44.103528 27.526332-79.918457 71.629859-79.918457h100.384131L534.0006 726.032577z"  horiz-adv-x="1024" />

    
    <glyph glyph-name="guige" unicode="&#58955;" d="M453.978 882.97l-1.055 0.528c2.197-2.461 2.197-1.318 1.055-0.528zM846.673 682.052c14.766 0 26.719 11.953 26.719 26.719V850.187c0 14.766-11.953 26.719-26.719 26.719H705.257c-14.766 0-26.719-11.953-26.719-26.719v-43.945h-86.836c-2.724 0.44-5.45 0.44-8.174 0H212.19V850.187c0 14.766-11.953 26.719-26.719 26.719H44.055c-14.766 0-26.719-11.953-26.719-26.719v-141.328c0-14.766 11.953-26.719 26.719-26.719H88v-466.348H44.055c-14.766 0-26.719-11.953-26.719-26.719v-141.328c0-14.766 11.953-26.719 26.719-26.719h141.416c14.766 0 26.719 11.953 26.719 26.719V91.69h466.26v-43.945c0-14.766 11.953-26.719 26.719-26.719h141.416c14.766 0 26.719 11.953 26.719 26.719v141.24c0 14.766-11.953 26.719-26.719 26.719H802.64V590.997c0.088 0.879 0.088 1.846 0 2.724v88.33h44.033zM731.975 823.38h87.891v-87.891h-87.891V823.38zM141.527 493.966c1.582 1.055 3.076 2.197 4.482 3.604l255.058 255.146h121.641L141.526 371.534V493.966zM70.774 823.38h87.891v-87.892H70.774V823.379z m114.698-141.328c14.766 0 26.719 11.953 26.719 26.719v43.945h113.203L141.527 568.761V682.052h43.945z m-43.945-386.191l456.768 456.855h80.156v-32.783L174.222 215.704h-32.783V295.86zM70.774 74.376v87.891h87.891V74.287l-87.891 0.088z m678.428 333.281L493.001 151.456a27.523 27.523 0 0 1-4.746-6.416H366.526l382.675 382.676v-120.059z m70.664-333.281h-87.891v87.891h87.891v-87.891zM705.257 215.704c-14.766 0-26.719-11.953-26.719-26.719v-43.945H562.347l186.856 186.943v-116.279h-43.945z m43.945 387.686L290.853 145.041h-78.662V178l504.052 504.052h32.959v-78.662z"  horiz-adv-x="1024" />

    
    <glyph glyph-name="api" unicode="&#58939;" d="M1023.168 287.616c-7.936 94.592-79.872 208.384-197.76 233.344a52.416 52.416 0 0 0-3.072 0.64c-3.072 71.936-36.8 134.656-97.28 179.776-91.264 67.968-230.592 82.24-338.24 34.688-74.816-33.088-127.488-90.944-152.64-166.336h-2.88a107.52 107.52 0 0 1-107.456-104.832 207.36 207.36 0 0 1-28.416-15.488C15.104 392-16.512 308.032 8.192 219.136c28.992-104.192 130.56-188.992 235.968-197.184 5.312-0.384 11.008-0.64 17.152-0.64 63.36 0 163.648 27.2 232.704 177.536 98.688 180.608 213.888 271.744 316.288 250.048 80.064-16.96 134.016-98.496 139.776-167.552 2.048-24.896-0.64-64.96-32.064-93.952a107.456 107.456 0 1 1 31.424-75.968c0 2.24 0 4.672-0.192 6.976 52.672 37.184 79.872 97.664 73.92 169.216z m-594.304-54.784l-1.216-2.24c-42.88-94.208-104.384-140.992-177.92-135.232-75.008 5.696-149.952 68.864-170.816 143.616-11.456 41.28-10.624 101.12 57.6 149.952 3.456 2.24 7.168 4.288 10.816 6.336a107.456 107.456 0 1 1 154.88 147.712c22.464 71.296 72.128 107.648 113.984 126.08 84.8 37.376 193.664 26.56 264.96-26.56 30.016-22.272 63.36-60.096 67.648-119.104-85.568-11.904-202.88-75.648-319.936-290.56z"  horiz-adv-x="1024" />

    
    <glyph glyph-name="system" unicode="&#58974;" d="M853.333333 746.666667H170.666667a42.666667 42.666667 0 0 1-42.666667-42.666667v-512a42.666667 42.666667 0 0 1 42.666667-42.666667h320v-85.333333h-183.466667a21.333333 21.333333 0 0 1 0-42.666667h409.6a21.333333 21.333333 0 1 1 0 42.666667H533.333333v85.333333h320a42.666667 42.666667 0 0 1 42.666667 42.666667V704a42.666667 42.666667 0 0 1-42.666667 42.666667z m0-42.666667v-384H170.666667V704zM170.666667 192v85.333333h682.666666v-85.333333z"  horiz-adv-x="1024" />

    
    <glyph glyph-name="arrow-right" unicode="&#58948;" d="M265.16761945-109.66475882999998L758.83238055 384 265.16761945 877.66475883Z"  horiz-adv-x="1024" />

    
    <glyph glyph-name="zidianguanli" unicode="&#58944;" d="M1002.0848 151.328l-33.568-10.368c0.96-7.264 2.144-14.304 2.144-21.76 0-7.328-1.184-14.432-2.368-21.568l33.792-10.56c7.936-2.24 14.496-7.616 18.336-14.752 3.84-7.328 4.672-15.808 1.952-23.552-5.376-16-23.168-24.672-39.936-19.68l-34.176 10.624c-7.136-12.8-15.776-24.672-26.208-35.2l20.8-27.488a28.96 28.96 0 0 0 5.824-22.816 29.696 29.696 0 0 0-12.704-19.616 32.544 32.544 0 0 0-44.416 6.752l-20.8 27.552c-13.696-6.56-28.192-11.2-43.008-13.888v-33.632c0-16.736-14.112-30.432-31.648-30.432-17.6 0-31.872 13.696-31.872 30.432v33.632a167.616 167.616 0 0 0-42.88 13.888l-20.928-27.552c-10.72-13.76-30.08-16.64-44.288-6.752a29.632 29.632 0 0 0-12.704 19.616 29.28 29.28 0 0 0 5.696 22.816l20.896 27.808a166.72 166.72 0 0 0-27.008 34.688l-33.376-10.432c-16.8-5.184-34.56 3.552-39.936 19.616a29.824 29.824 0 0 0 20.224 38.24l33.472 10.432c-0.8 7.264-2.016 14.304-2.016 21.824 0 7.36 1.184 14.496 2.304 21.632l-33.792 10.368c-16.672 5.376-25.632 22.496-20.224 38.432 5.376 16 23.136 24.672 39.936 19.68l34.016-10.752c7.328 12.672 15.84 24.8 26.336 35.328l-20.8 27.552a29.44 29.44 0 0 0 6.944 42.432 32.704 32.704 0 0 0 44.384-6.752l20.832-27.616c13.696 6.432 28.224 11.2 43.104 13.952v33.568c0 16.736 14.048 30.432 31.648 30.432 17.536 0 31.808-13.568 31.808-30.432v-33.504c15.072-2.688 29.344-7.808 42.848-14.016l20.992 27.616a32.48 32.48 0 0 0 44.224 6.752 29.568 29.568 0 0 0 7.136-42.432l-21.024-27.808c10.432-10.432 19.872-21.888 27.04-34.752l33.376 10.432c16.768 5.12 34.56-3.68 39.936-19.68 5.536-15.936-3.712-33.056-20.32-38.304z m-206.016 74.432c-61.344 0-111.136-47.808-111.136-106.56 0-58.88 49.792-106.496 111.136-106.496 61.312 0 111.104 47.616 111.104 106.496 0 58.752-49.792 106.56-111.104 106.56zM802.7888 838.848h-76.448c0 22.08-21.024 38.24-42.848 38.24H39.3968a39.68 39.68 0 0 1-39.36-40.032v-795.616s41.888-120.192 110.752-120.192H673.2848a227.488 227.488 0 0 0-107.04 97.44H117.6368s-40.608 13.696-40.608 41.248l470.304 0.256 1.664-3.36a227.68 227.68 0 0 0-12.64 73.632c0 60.576 24 118.624 66.88 161.44a228.352 228.352 0 0 0 123.552 63.392l-3.2-0.288 2.144 424.672h38.208l0.576-421.024c27.04 0 52.672-4.8 76.64-13.344V794.464c0.032 0-6.304 44.384-38.368 44.384zM149.7648 381.664H72.3888v77.408H149.7648v-77.408z m0 144.32H72.3888v77.44H149.7648v-77.44z m0 137.248H72.3888v77.44H149.7648v-77.44z m501.856-281.568H206.0848v77.408h445.536v-77.408z m0 144.32H206.0848v77.44h445.536v-77.44z m0 137.248H206.0848v77.44h445.536v-77.44z"  horiz-adv-x="1024" />

    
    <glyph glyph-name="arrow-down" unicode="&#59010;" d="M18.33524117 581.4659030600001l493.66475883-493.66475878 493.66475883 493.66475878z"  horiz-adv-x="1024" />

    
    <glyph glyph-name="icon-test" unicode="&#58881;" d="M518.4 896c-281.6 0-512-230.4-512-512s230.4-512 512-512 512 230.4 512 512-230.4 512-512 512zM211.2 678.4c38.4 0 64-25.6 64-64s-25.6-64-64-64-64 25.6-64 64 25.6 64 64 64zM153.6 384c0 38.4 25.6 64 64 64s64-25.6 64-64-25.6-64-64-64-64 25.6-64 64z m70.4-300.8c-38.4 0-64 25.6-64 64s25.6 64 64 64 64-25.6 64-64c0-32-25.6-64-64-64z m153.6 595.2h416c38.4 0 64-25.6 64-64s-25.6-64-64-64H377.6c-38.4 0-64 25.6-64 64s25.6 64 64 64zM384 448h416c38.4 0 64-25.6 64-64s-25.6-64-64-64H384c-32 0-64 25.6-64 64s32 64 64 64z m428.8-364.8H390.4c-38.4 0-64 25.6-64 64s25.6 64 64 64h416c38.4 0 64-25.6 64-64s-25.6-64-57.6-64z"  horiz-adv-x="1030" />

    
    <glyph glyph-name="cluster" unicode="&#58952;" d="M971.2-39H622v182h-218v-120H0v662h312v120h404v-182h310v-662zM54.8 635h293.2v-490H54.8zM54.8 125h293.2v-52H54.8zM404 245h256v-52h-256zM660 755H366.8v-70h37.2v-420h256v358zM971.2 573H716v-430h-39.2v-60h294.4zM676.8 63H971v-52H676.8zM725.2 529h197.6v-50h-197.6zM415.2 711h197.6v-50h-197.6zM103.2 591h197.6v-50H103.2z"  horiz-adv-x="1026" />

    
    <glyph glyph-name="datacenter" unicode="&#58951;" d="M0-68v60h80V836h462v-300h402v-544h80v-60zM140 776h342v-784H140zM542 476h342v-484H542zM608 412h60v-60h-60zM608 288h60v-60h-60zM608 166h60v-60h-60zM756 412h60v-60h-60zM756 288h60v-60h-60zM756 166h60v-60h-60zM198 718h60v-60H198zM198 596h60v-60H198zM198 472h60v-60H198zM198 350h60v-60H198zM198 226h60v-60H198zM198 104h60v-60H198zM346 718h60v-60h-60zM346 596h60v-60h-60zM346 472h60v-60h-60zM346 350h60v-60h-60zM346 226h60v-60h-60zM346 104h60v-60h-60z"  horiz-adv-x="1024" />

    
    <glyph glyph-name="jiantou" unicode="&#58882;" d="M647.763 405.018c12.499 12.499 32.755 12.499 45.253 0 12.499-12.499 12.499-32.755 0-45.253L376.235 42.984c-12.499-12.499-32.755-12.499-45.253 0-12.499 12.499-12.499 32.755 0 45.253l316.781 316.781zM330.982 679.763c-12.499 12.499-12.499 32.755 0 45.253 12.499 12.499 32.755 12.499 45.253 0l316.781-316.781c12.499-12.499 12.499-32.755 0-45.253-12.499-12.499-32.755-12.499-45.253 0L330.982 679.763z"  horiz-adv-x="1024" />

    
    <glyph glyph-name="zuoyoujiantou" unicode="&#58883;" d="M584.54813351 388.26753707c0-1.70701499 0-3.41402998-1.70701457-5.12104456L494.07634339 296.08873194c-1.70701499-1.70701499-3.41402998-1.70701499-5.12104455-1.70701456s-3.41402998 0-5.12104502 1.70701453l-10.24208909 10.24208958c-1.70701499 1.70701499-1.70701499 3.41402998-1.70701504 5.12104498 0 1.70701499 0 3.41402998 1.70701504 5.12104456l73.401641 73.40164104-73.401641 73.40164146c-1.70701499 1.70701499-1.70701499 3.41402998-1.70701504 5.12104454 0 1.70701499 0 3.41402998 1.70701504 5.12104455l10.24208909 10.24208956c1.70701499 1.70701499 3.41402998 1.70701499 5.12104502 1.707015 1.70701499 0 3.41402998 0 5.12104455-1.707015l88.76477556-88.76477512c1.70701499-3.41402998 1.70701499-5.12104455 1.70701456-6.82805999z"  horiz-adv-x="1035" />

    
    <glyph glyph-name="zuoyoujiantou-copy" unicode="&#58884;" d="M503.45186648 379.73246293c0 1.707015 0 3.41402998 1.70701457 5.12104456L593.9236566 471.91126806c1.70701499 1.70701499 3.41402999 1.70701499 5.12104455 1.70701456s3.41402998 0 5.12104502-1.70701453l10.24208909-10.24208958c1.70701499-1.70701499 1.70701499-3.41402999 1.70701504-5.12104498 0-1.707015 0-3.41402998-1.70701504-5.12104456l-73.401641-73.40164104 73.401641-73.40164146c1.70701499-1.70701499 1.70701499-3.41402999 1.70701504-5.12104454 0-1.707015 0-3.41402998-1.70701504-5.12104455l-10.24208909-10.24208956c-1.70701499-1.70701499-3.41402999-1.70701499-5.12104502-1.707015-1.707015 0-3.41402998 0-5.12104455 1.707015l-88.76477556 88.76477512c-1.70701499 3.41402999-1.70701499 5.12104455-1.70701456 6.82805999z"  horiz-adv-x="1035" />

    
    <glyph glyph-name="arrow-left-copy" unicode="&#59072;" d="M376.237 362.98199999999997c-12.499-12.499-32.755-12.499-45.253 0-12.499 12.499-12.499 32.755 0 45.253L647.765 725.016c12.499 12.499 32.755 12.499 45.253 0 12.499-12.499 12.499-32.755 0-45.253l-316.781-316.781zM693.018 88.23699999999997c12.499-12.499 12.499-32.755 0-45.253-12.499-12.499-32.755-12.499-45.253 0l-316.781 316.781c-12.499 12.499-12.499 32.755 0 45.253 12.499 12.499 32.755 12.499 45.253 0L693.018 88.23699999999997z"  horiz-adv-x="1024" />

    
    <glyph glyph-name="pingtaijiankong" unicode="&#58953;" d="M904.00256 803.99872H120.00256c-30.88896 0-56.00256-26.9056-56.00256-60.00128v-600.00256c0-33.09568 25.10848-60.00128 56.00256-60.00128h280.00256v-60.00128H316.00128c-15.488 0-28.00128-13.40416-28.00128-29.99808s12.50816-29.99808 28.00128-29.99808h392.00256c15.488 0 28.00128 13.40416 28.00128 29.99808s-12.50816 29.99808-28.00128 29.99808h-83.99872v60.00128h280.00256c30.88896 0 56.00256 26.9056 56.00256 60.00128V743.99744c-0.01024 33.09568-25.11872 60.00128-56.00768 60.00128z m-336-780.00128H456.00256v60.00128h112v-60.00128z m336 120.00256H120.00256V743.99744h784v-599.99744zM286.05952 327.10144c34.16064-29.39904 68.22912-52.89984 101.36064-69.89824 42.83904-22.00064 84.37248-33.1008 123.38688-33.1008 161.65376 0 315.1872 195.2 321.62304 203.49952 9.14944 11.8016 9.2416 28.8 0.18944 40.69888-1.59232 2.0992-39.19872 51.2-96.512 100.70016-34.06336 29.39904-68.224 53.00224-101.36064 70.00064-42.9312 22.00064-84.64896 33.1008-123.94496 33.1008-39.0144 0-80.54784-11.10016-123.38688-33.1008-33.13152-16.9984-67.2-40.4992-101.36064-69.89824-57.49248-49.50016-95.3856-98.60096-96.9728-100.59776-9.05216-11.8016-9.05216-28.8 0-40.69888 1.59232-2.20672 39.48544-51.20512 96.97792-100.70528z m37.4272 192c47.13472 40.4992 117.87776 88.89856 187.32032 88.89856 84.46464 0 84.46464 0 186.94656-88.20224 31.17568-26.79808 56.27904-53.89824 71.68-71.70048-15.488-17.60256-40.68864-44.40064-71.86432-71.19872-47.31904-40.6016-118.15936-89.00096-186.76224-89.00096-69.16096 0-139.53024 48-186.48064 88.20224-31.26784 26.90048-56.6528 54.00064-72.15104 71.79776a708.18304 708.18304 0 0 0 71.31136 71.20384zM510.80704 352c49.37728 0 89.6 43.10016 89.6 96s-40.22272 96-89.6 96c-49.37216 0-89.6-43.10016-89.6-96s40.22784-96 89.6-96z m0 128c16.42496 0 29.86496-14.40256 29.86496-32s-13.44-32-29.86496-32-29.86496 14.40256-29.86496 32 13.43488 32 29.86496 32z"  horiz-adv-x="1024" />

    
    <glyph glyph-name="duixiangcunchu" unicode="&#58886;" d="M181.76 96.192h33.344v-138.816H181.76zM282.688 96.192h33.344v-138.816h-33.344zM693.312 96.192h33.344v-138.816h-33.344zM384.768 96.192h33.344v-138.816h-33.344zM1006.272 143.296a53.056 53.056 0 0 1-10.56 26.816 125.056 125.056 0 0 0-9.408 16.064 600.064 600.064 0 0 1-16.064 31.808c-7.872 14.656-16.704 31.36-26.688 50.304-10.048 18.816-20.544 38.912-31.616 60.032a4346.432 4346.432 0 0 1-32.192 60.032c-10.432 18.944-19.584 35.776-27.776 50.816-8.064 15.04-14.08 26.048-17.728 33.216-9.664 17.664-21.12 29.568-34.432 35.712-13.312 6.144-32.512 9.28-57.664 9.28H569.408v-83.392H652.8L541.632 338.88 430.4 434.048h83.392V517.376H276.16c-19.264 0-35.84-2.944-49.92-8.768s-25.92-17.216-35.52-34.176l-17.728-32.32c-8.96-14.912-18.688-32.064-29.44-51.264-10.752-19.2-22.272-39.488-34.432-61.056-12.288-21.44-23.488-41.6-33.856-60.544-10.432-18.944-19.264-35.712-26.688-50.304a658.24 658.24 0 0 1-22.72-49.344c-1.856-5.184-3.52-10.24-4.992-15.104a73.984 73.984 0 0 1-2.752-17.088 544.96 544.96 0 0 1-0.576-26.432v-41.024c0-16.96-0.192-33.856-0.576-50.816-0.32-16.96-0.576-32.832-0.576-47.872v-34.24c0.64-18.944 6.656-34.304 17.728-46.4 11.072-11.968 27.328-18.048 48.832-18.048h852.288c22.912 0 40.512 6.336 52.672 19.008 12.16 12.672 18.24 28.16 18.24 46.4v92.8c0 18.24 0.192 35.52 0.576 51.776 0.32 16.256 0.576 28.352 0.576 36.16a192.256 192.256 0 0 1-1.024 24.576z m-205.952 138.176a38.4 38.4 0 0 0 26.112 9.28c10.432 0 18.944-3.136 25.6-9.28a30.08 30.08 0 0 0 9.984-22.976 29.888 29.888 0 0 0-9.984-22.976 36.352 36.352 0 0 0-25.6-9.28 38.144 38.144 0 0 0-26.112 9.28 29.632 29.632 0 0 0-10.496 22.976c0 9.024 3.584 16.704 10.496 22.976z m-84.864 175.872a36.352 36.352 0 0 0 25.6 9.28c10.432 0 19.136-3.136 26.112-9.28a29.568 29.568 0 0 0 10.496-23.04 29.312 29.312 0 0 0-10.496-22.976 38.4 38.4 0 0 0-26.112-9.28 36.288 36.288 0 0 0-25.6 9.28 30.08 30.08 0 0 0-9.984 22.976c0 9.088 3.328 16.832 9.984 23.04z m-461.12 0a38.528 38.528 0 0 0 26.176 9.28 36.48 36.48 0 0 0 25.6-9.28 30.144 30.144 0 0 0 9.984-23.04 29.888 29.888 0 0 0-9.984-22.976 36.48 36.48 0 0 0-25.6-9.28 38.144 38.144 0 0 0-26.112 9.28 29.376 29.376 0 0 0-10.56 22.976 29.44 29.44 0 0 0 10.496 23.04z m-85.44-176a38.4 38.4 0 0 0 26.112 9.28c10.432 0 19.072-3.008 26.112-9.28 6.976-6.208 10.56-13.824 10.56-22.976s-3.52-16.896-10.496-23.04a38.4 38.4 0 0 0-26.112-9.28 38.144 38.144 0 0 0-26.112 9.28c-6.976 6.272-10.496 13.824-10.496 23.04s3.456 16.832 10.432 22.976z m765.056-180.288v-139.648a38.272 38.272 0 0 0-6.656-22.976c-4.416-6.144-14.08-9.28-28.864-9.28l-790.08 1.024c-10.304 0-17.92 2.624-22.72 7.808a27.904 27.904 0 0 0-7.168 19.52v138.752a30.72 30.72 0 0 0 9.984 24c6.72 6.144 16.256 9.28 28.864 9.28l785.664 0.96c20.672 0 31.104-9.856 31.104-29.376h-0.128zM790.912 96.192h33.344v-138.816h-33.344zM590.144 96.192h33.344v-138.816h-33.344zM485.76 96.192h33.344v-138.816H485.76zM464.832 783.744h0.832V894.72H135.616v-282.368h330.048V736.64h-0.832zM569.408 717.952H467.456v-47.552h46.336v-153.024h55.616z"  horiz-adv-x="1024" />

    
    <glyph glyph-name="gaojingcelveguanli" unicode="&#58887;" d="M856.82144 709.158362l-54.654326-55.550299c-34.878932-35.454914 18.94342-91.901186 54.654326-55.614297l54.654326 55.614297c39.166801 41.598726-19.391406 91.005213-54.654326 55.550299zM520.639735 777.060283V855.393884c-1.279961 57.79023-77.05364 50.366458-77.05364 0v-78.333601c-0.383988-50.366458 77.05364-51.646418 77.05364 0zM564.542391-50.178383H399.299451c-10.751671 0-33.150985-26.687183-33.150984-36.798873 0-10.047692 22.783302-39.358795 33.150984-39.358795h165.306938c10.751671 0 33.150985 29.311102 33.150985 39.358795-0.063998 10.11169-22.463312 36.798873-33.214983 36.798873zM115.660138 726.693825c-30.591063 30.655061-81.789495-11.839637-47.806536-48.126526l47.742538-48.126526c31.423038-31.487036 78.333601 17.087477 47.806536 48.126526l-47.742538 48.126526zM481.920921 654.05605c-154.939255 0-280.631406-123.452219-280.631405-274.871583 0-63.486056 17.215473-116.860421 51.198432-158.459147 11.647643-12.671612 23.679275-23.615277 35.26292-34.558941 39.166801-36.350887 75.773679-71.357815 86.52535-145.275551h68.861891v-10.047693h77.05364v10.047693H589.949613c10.751671 74.429721 47.806536 108.988662 86.973336 145.723537 11.647643 10.943665 23.231289 21.88733 34.878932 34.174953 36.158893 42.430701 51.646418 89.725252 51.646418 158.907134C763.000313 531.051817 636.860176 654.05605 481.920921 654.05605z m43.262675-530.863743c-10.239686-9.535708-22.143322-13.887575-35.774904-13.887574s-25.535218 5.183841-35.774905 13.887574c-11.071661 9.535708-16.191504 22.52731-16.191504 38.974807 0 14.719549 5.119843 26.879177 15.35953 37.246859a49.278491 49.278491 0 0 0 36.670877 15.615522c14.463557 0 26.431191-5.183841 36.670877-15.615522 10.239686-10.431681 15.35953-22.52731 15.359529-37.246859a51.774414 51.774414 0 0 0-16.3195-38.974807z m14.527555 330.997863l-11.967633-127.868084c-1.727947-16.63949-4.287869-28.543126-9.343714-38.078833a32.127016 32.127016 0 0 0-29.823087-17.471465 31.99902 31.99902 0 0 0-29.823086 17.471465c-4.287869 8.703733-7.679765 21.439343-9.407712 38.910808l-9.343714 123.900205a847.33405 847.33405 0 0 0-2.559922 53.24637c0 16.703488 5.119843 30.207075 14.463557 39.742783 10.239686 10.303684 22.975296 15.103537 39.166801 15.103537 24.703243 0 35.774904-11.135659 40.894747-20.671367 6.84779-11.903635 9.343714-27.775149 9.343714-48.446516 0.063998-11.967633 0.063998-23.871269-1.599951-35.838903z"  horiz-adv-x="1024" />

    
    <glyph glyph-name="gaojingtongji" unicode="&#58888;" d="M243.712 607.36h97.536v-536.448H243.712zM97.408 363.52h97.536v-292.608H97.408zM0 22.144v-97.536h576.512A317.056 317.056 0 0 0 512 22.144H0zM780.16 607.36h-97.536v-170.752c30.272 12.608 63.36 19.328 97.536 22.016V607.36zM804.544 363.52a219.456 219.456 0 1 1 0-438.848 219.456 219.456 0 0 1 0 438.848z m-24.384-69.056c0 11.2 15.04 20.288 33.664 20.288 18.56 0 33.664-9.088 33.664-20.288v-162.304c0-11.2-15.04-20.288-33.664-20.288-18.56 0-33.664 9.088-33.664 20.288V294.464z m39.552-328.192a51.648 51.648 0 1 0 0 103.296 51.648 51.648 0 0 0 0-103.296zM633.856 704.896H536.32v-393.472a317.44 317.44 0 0 0 97.536 99.072v294.4zM390.016 851.2h97.536v-780.288H390.016z"  horiz-adv-x="1024" />

    
    <glyph glyph-name="gailan" unicode="&#58889;" d="M511.552392 895.104783a511.552392 511.552392 0 1 1 0-1023.104783 511.552392 511.552392 0 0 1 0 1023.104783zM204.109404 676.927688a63.944049 63.944049 0 1 0 0-127.888098 63.944049 63.944049 0 0 0 0 127.888098z m-55.567378-295.549394a63.944049 63.944049 0 1 0 127.888098 0 63.944049 63.944049 0 0 0-127.888098 0z m72.320719-295.48545a63.944049 63.944049 0 1 0 0 127.888098 63.944049 63.944049 0 0 0 0-127.888098z m151.355564 589.947795h418.321968a63.944049 63.944049 0 0 0 0-127.888097H372.218309a63.944049 63.944049 0 0 0 0 127.888097z m8.37667-231.541401h418.321969a63.944049 63.944049 0 0 0 0-127.888098H380.594979a63.944049 63.944049 0 0 0 0 127.888098z m426.762583-359.429499H389.035594a63.944049 63.944049 0 0 0 0 127.888098h418.321968a63.944049 63.944049 0 0 0 0-127.888098z"  horiz-adv-x="1024" />

    
    <glyph glyph-name="gaojingguanli" unicode="&#58890;" d="M958.528 464.64l-83.456 15.744a381.952 381.952 0 0 1-24.896 67.52l51.2 76.608a61.632 61.632 0 0 1 0 87.232l-43.776 43.584a62.08 62.08 0 0 1-87.616 0l-70.656-48a366.336 366.336 0 0 1-64.96 29.76l-18.368 90.88A61.696 61.696 0 0 1 554.112 889.6h-62.016a61.696 61.696 0 0 1-61.888-61.632l-16.448-86.08c-22.272-6.4-43.264-15.296-63.616-25.472-0.576 0.704-1.024 1.6-1.664 2.304l-78.848 52.288a62.08 62.08 0 0 1-87.552 0l-43.84-43.584a61.504 61.504 0 0 1 0-87.168l52.608-76.928a364.8 364.8 0 0 1-26.624-58.88c-2.048 0.32-4.096 1.088-6.208 1.088l-92.928-18.56a61.888 61.888 0 0 1-62.016-61.632v-61.632c0-34.048 27.712-61.632 62.016-61.632l94.912-18.048c5.888-20.096 12.992-39.68 22.016-58.176-2.56-1.536-5.184-3.008-7.232-5.12l-52.48-78.592a61.44 61.44 0 0 1 0-87.104l43.84-43.584a62.208 62.208 0 0 1 87.616 0l79.616 54.016c18.176-10.24 37.12-19.392 56.96-26.624-0.512-2.56-1.28-5.056-1.28-7.68l18.56-92.48c0-34.048 27.712-61.568 61.888-61.568h61.952c34.176 0 61.888 27.52 61.888 61.568l17.344 91.072c21.248 5.76 41.984 12.8 61.568 21.952 1.024-1.216 1.6-2.624 2.688-3.776l78.848-52.224a62.336 62.336 0 0 1 87.616 0l43.776 43.584a61.44 61.44 0 0 1 0 87.232l-49.856 72.896c11.648 19.648 22.08 40.128 30.016 61.824l92.928 18.496a61.696 61.696 0 0 1 61.888 61.632v61.632a61.376 61.376 0 0 1-61.632 61.632z m-446.592-410.176c-182.4 0-330.112 147.136-330.112 328.64 0 181.44 147.84 328.64 330.112 328.64 182.272 0 330.112-147.136 330.112-328.64s-147.84-328.64-330.112-328.64z m0 94.528M471.872 397.184c1.856-14.848 5.632-25.664 10.304-33.088 6.528-9.472 17.728-14.848 32.704-14.848 14.976 0 26.176 5.376 32.704 14.848 5.632 8.128 8.384 18.24 10.304 32.448l13.056 108.8c1.856 10.112 1.856 20.224 1.856 30.336 0 17.6-2.816 31.104-10.304 41.216-5.632 8.128-17.728 17.6-44.864 17.6-17.728 0-31.744-4.032-43.008-12.864a41.216 41.216 0 0 1-15.808-33.728c0-9.472 0.96-24.32 2.816-45.248l10.24-105.472zM520.96 268.032a54.4 54.4 0 0 1-40.192-16.768 54.016 54.016 0 0 1-16.832-40c0-17.664 5.632-31.616 17.728-41.856 11.2-9.28 24.32-14.912 39.232-14.912a55.872 55.872 0 0 1 56.96 56.768 54.08 54.08 0 0 1-16.832 40 54.016 54.016 0 0 1-40.064 16.768z"  horiz-adv-x="1024" />

    
    <glyph glyph-name="gongdanguanli" unicode="&#58891;" d="M813.888 767.168h-90.112v63.872h-80.896C616.896 869.12 569.024 894.976 513.536 894.976s-103.36-25.856-129.344-63.872H303.36v-63.808H213.184c-65.856 0-119.232-56.384-120-126.208v-641.792c0.768-69.824 54.144-126.208 120-126.208h600.704c66.368 0 120.128 57.216 120.128 127.744V639.424c0.064 70.592-53.76 127.744-120.128 127.744z m-460.032 3.264h71.04c0 38.336 39.744 69.44 88.768 69.44s88.768-31.04 88.768-69.44h71.04v-138.816H353.856V770.432z m360.192-753.856H299.712c-13.696 0-24.832 16.576-24.832 37.184 0 20.544 11.072 37.184 24.832 37.184h414.336c13.76 0 24.832-16.64 24.832-37.184-0.064-20.48-11.136-37.184-24.832-37.184z m-445.44 221.184c0 20.544 11.072 37.184 24.832 37.184h414.336c13.76 0 24.832-16.64 24.832-37.184-0.064-20.48-11.136-37.184-24.832-37.184H293.44c-13.76 0-24.832 16.64-24.832 37.184z m445.44 140.16H299.712c-13.696 0-24.832 16.576-24.832 37.184 0 20.544 11.072 37.184 24.832 37.184h414.336c13.76 0 24.832-16.64 24.832-37.184-0.064-20.48-11.136-37.184-24.832-37.184z"  horiz-adv-x="1024" />

    
    <glyph glyph-name="fuwufabu" unicode="&#58892;" d="M518.272 104.96c-49.408-62.784 5.76-147.264 5.76-147.264s100.736-5.632 130.432 68.672c7.36 39.616-13.184 54.528-13.184 54.528s-9.984-40.576-31.744-54.912c-21.696-14.336-33.92-14.912-56.96-19.008-7.936 22.144-13.632 32.896-12.032 58.88 1.6 25.984 31.744 54.912 31.744 54.912s-23.36 10.304-54.016-15.808zM817.113621 464.08292a70.336 70.336 0 1 1 70.348758 121.81816 70.336 70.336 0 1 1-70.348758-121.81816ZM1012.928 609.472c-9.408 44.928-24.32 95.936-48.384 109.76-23.936 13.888-76.224 1.6-119.872-12.736-86.144-28.16-153.088-74.624-210.624-145.984-73.856-91.712-100.672-162.24-110.208-196.032l-98.88-2.624-29.696-284.096 143.104 86.272 157.824-91.136-3.2-167.04 231.104 167.744-47.104 86.976c24.512 25.088 72.192 83.648 114.688 193.408 33.216 85.696 39.808 166.784 21.248 255.488z m-56.32-144.512a120.384 120.384 0 0 0-208.448 120.384 120.512 120.512 0 0 0 164.352 43.968 120.704 120.704 0 0 0 44.096-164.352zM559.04 805.888c68.992 0 131.904-26.368 179.136-69.44 5.376-4.928 4.224-4.672 9.28-10.112 5.76-8.128 15.232-14.08 26.112-14.08a29.44 29.44 0 0 1 29.312 29.312c0 10.112-5.504 18.432-12.352 25.344-4.928 5.376-4.032 4.032-9.408 9.024A320.96 320.96 0 0 1 559.04 864.512a324.8 324.8 0 0 1-324.16-308.928 234.688 234.688 0 0 1-234.88-232.96v-3.392a234.56 234.56 0 0 1 234.496-232.96h57.28a29.376 29.376 0 0 1 0 58.624h-57.28a176.064 176.064 0 0 0 0 352h2.752l27.968-0.448c1.6-0.128 11.456-0.896 21.568 10.112 10.112 11.008 6.4 20.736 6.4 33.152a266.048 266.048 0 0 0 265.856 266.176z"  horiz-adv-x="1024" />

    
    <glyph glyph-name="jiankongxiangqing" unicode="&#58893;" d="M955.2 893.056H68.288C32.064 893.056 2.88 863.872 2.368 827.84v-888.576a65.92 65.92 0 0 1 65.92-65.216h886.912c36.48 0 66.048 29.568 66.048 66.048V827.008c0 36.48-29.568 66.048-66.048 66.048z m-49.408-853.952a49.6 49.6 0 0 0-49.536-49.536H167.296a49.536 49.536 0 0 0-49.536 49.536V349.248h60.288l134.976-147.328c7.04-7.68 16.768-11.52 26.496-11.392a35.2 35.2 0 0 1 33.6 22.592l88.32 292.608 87.616-384.192a35.2 35.2 0 0 1 34.432-27.072 35.264 35.264 0 0 1 35.136 30.208l81.216 269.824 29.568-32.512a35.52 35.52 0 0 1 10.176-7.744 35.264 35.264 0 0 1 17.472-4.672h148.736v-310.464z m0 380.992h-134.016l-58.176 63.936a35.2 35.2 0 0 1-29.568 15.552 35.328 35.328 0 0 1-35.264-32.768l-60.416-200.704-87.104 382.08a35.264 35.264 0 0 1-35.136 27.072 35.328 35.328 0 0 1-33.728-22.592L324.16 294.08 219.52 408.256a34.944 34.944 0 0 1-26.176 11.456H117.76V728c0 27.392 22.208 49.536 49.536 49.536h688.96c27.392 0 49.536-22.208 49.536-49.536v-307.904z"  horiz-adv-x="1024" />

    
    <glyph glyph-name="jiaoseguanli" unicode="&#58894;" d="M326.35322-127.744112h-172.084712v246.164303a120.587243 120.587243 0 0 0-83.29156 114.12607V451.010683c0 66.019117 53.672518 119.691635 119.691634 119.691635H357.82745c66.019117 0 120.331355-53.672518 120.331356-119.691635v-218.40045c0-51.81733-33.905166-98.069095-83.29156-114.12607v-246.164303H326.35322z m548.496033 67.618417a85.402636 85.402636 0 1 0 0 170.805273 85.402636 85.402636 0 0 0 0-170.805273z m-247.507715 55.079903l-6.013369 1.91916a30.898482 30.898482 0 0 0-12.346598 15.417255 54.568126 54.568126 0 0 0-3.710377 14.201787V348.591491h-48.746673a34.097083 34.097083 0 0 0-23.477729 11.13113 32.369838 32.369838 0 0 0-8.636222 23.989505 33.201474 33.201474 0 0 0 32.113951 32.11395h48.746673V738.500906c0 6.781033 1.855188 13.562067 6.141313 19.127632a35.120635 35.120635 0 0 0 28.403573 16.056975h86.362217a33.585306 33.585306 0 0 0 0.63972-67.234585h-53.672518v-289.985132h53.672518c18.487912 0 33.905166-15.417255 33.905167-33.969138 0-18.487912-15.417255-33.905166-33.905167-33.905167h-53.672518v-289.345411h53.032798c18.487912 0 33.905166-15.417255 33.905166-33.905167s-15.417255-33.905166-33.905166-33.905166l-98.836759 3.518461z m247.507715 302.907478a84.634972 84.634972 0 1 0 0 169.205972 84.634972 84.634972 0 0 0 0-169.205972zM273.960142 618.169551a139.011183 139.011183 0 0 0-138.819266 138.819266c0 76.510527 62.30874 138.819267 138.819266 138.819267s138.819267-62.30874 138.819267-138.819267a139.075155 139.075155 0 0 0-138.819267-138.819266z m600.889111 33.649278a87.897545 87.897545 0 1 0 0 175.79509 87.897545 87.897545 0 0 0 0-175.79509z m0 23.157869"  horiz-adv-x="1024" />

    
    <glyph glyph-name="lantufabu" unicode="&#58895;" d="M864 80.896L448 208.96l416 480.064L320 208.96 0 336.896 1024 880.96l-160-800.064z m-416-192v224.064l128.064-64L448-111.104z m0 0"  horiz-adv-x="1024" />

    
    <glyph glyph-name="lantubushu" unicode="&#58896;" d="M511.6802 895.29644a511.6802 511.6802 0 1 1 0-1023.3604 511.6802 511.6802 0 0 1 0 1023.3604z m19.571768-861.157777H305.345159a24.62461 24.62461 0 0 0-24.624609 24.62461V478.404997c-31.980012 17.397127-53.918301 50.84822-53.918301 89.799875s21.938289 72.402748 53.918301 89.799875v20.403248a53.726421 53.726421 0 1 0 107.452842 0v-26.35153a102.27208 102.27208 0 0 0 0-167.703186v-326.451967c0-13.623485 11.001124-24.62461 24.624609-24.62461h118.453967v-99.138039z m287.884072 585.426109h-46.626858a50.84822 50.84822 0 0 1-50.84822-50.84822V299.252967c27.630731-17.013367 46.179138-47.266458 46.179138-82.060712s-18.548407-65.047345-46.179138-82.060712v-50.14466a50.84822 50.84822 0 0 0-101.69644 0v50.52842c-27.183011 17.077327-45.411618 47.138538-45.411618 81.676952s18.228607 64.535665 45.411618 81.676952v269.911305a50.84822 50.84822 0 0 1-50.84822 50.84822h-45.795378v93.381637h295.751156v-93.445597z"  horiz-adv-x="1024" />

    
    <glyph glyph-name="lantudingyi" unicode="&#58897;" d="M906.586525 430.754635a397.622121 397.622121 0 0 1-347.703639 348.598464V895.360839a512.671119 512.671119 0 0 0 463.455715-464.606204h-115.752076z m-130.261032-46.722677a264.740528 264.740528 0 0 0-162.986081-244.606953 263.39829 263.39829 0 0 0-287.686412 57.396667 265.251857 265.251857 0 0 0-57.268834 288.517321A263.973535 263.973535 0 0 0 512.288042 648.772486a264.420948 264.420948 0 0 0 264.037451-264.740528zM512.288042 542.671743A158.511953 158.511953 0 0 1 354.031753 384.031958a158.448037 158.448037 0 0 1 158.256289-158.639785 158.511953 158.511953 0 0 1 158.256289 158.639785A158.511953 158.511953 0 0 1 512.288042 542.671743zM117.989559 430.754635H2.237483A512.607203 512.607203 0 0 0 465.629282 895.360839v-116.00774a397.686037 397.686037 0 0 1-347.639723-348.598464z m0-93.445353a397.558205 397.558205 0 0 1 347.703639-348.598465v-116.00774A512.607203 512.607203 0 0 0 2.237483 337.309282h115.752076z m788.596966 0h115.752076a512.607203 512.607203 0 0 0-463.391799-464.606205v116.00774a397.686037 397.686037 0 0 1 347.639723 348.598465z m0 0"  horiz-adv-x="1024" />

    
    <glyph glyph-name="jiaobenku" unicode="&#58899;" d="M674.048 423.168a23.872 23.872 0 0 0 0 36.928 32.96 32.96 0 0 0 42.176 0l148.992-130.368c5.888-5.12 8.768-11.84 8.768-18.56a24.32 24.32 0 0 0-8.768-18.496l-148.992-130.368a32.96 32.96 0 0 0-42.176 0 23.872 23.872 0 0 0 0 36.928l128 112-128 111.936z m-275.584-276.672l170.688 348.032c9.664 19.648 28.864 29.696 43.008 22.464 14.08-7.232 17.664-28.928 8-48.576l-170.688-348.032c-9.664-19.648-28.864-29.696-43.008-22.464-14.08 7.232-17.664 28.928-8 48.576zM155.2 329.728l148.992 130.368c11.648 10.176 30.528 10.176 42.176 0s11.648-26.752 0-36.928l-128-112 128-112a23.872 23.872 0 0 0 0-36.928 32.96 32.96 0 0 0-42.176 0L155.2 292.672a24.448 24.448 0 0 0-8.768 18.496 24.96 24.96 0 0 0 8.768 18.56zM938.24 893.12H86.08a71.68 71.68 0 0 1-71.04-72.448v-875.584a71.68 71.68 0 0 1 71.04-72.448H938.24a71.68 71.68 0 0 1 71.04 72.448V820.672c0 39.936-31.744 72.448-71.04 72.448z m-106.496-72.448a35.84 35.84 0 0 0 35.52-36.224 35.84 35.84 0 0 0-35.52-36.224 35.84 35.84 0 0 0-35.52 36.224c0 19.904 15.872 36.224 35.52 36.224z m-142.016 0a35.84 35.84 0 0 0 35.52-36.224 35.84 35.84 0 0 0-35.52-36.224 35.84 35.84 0 0 0-35.52 36.224c0 19.904 15.872 36.224 35.52 36.224z m-142.08 0a35.84 35.84 0 0 0 35.52-36.224 35.84 35.84 0 0 0-35.52-36.224 35.84 35.84 0 0 0-35.52 36.224c0 19.904 15.936 36.224 35.52 36.224z m377.664-826.432c0-19.392-15.36-35.136-34.432-35.136H133.44a34.752 34.752 0 0 0-34.432 35.136V666.56h826.304V-5.76zM304.256 162.304a32.96 32.96 0 0 1 42.176 0 23.872 23.872 0 0 1 0 36.928l-128 112 128 112c11.648 10.176 11.648 26.752 0 36.928s-30.528 10.176-42.176 0L155.2 329.728a24.448 24.448 0 0 1-8.768-18.496 24.32 24.32 0 0 1 8.768-18.496l149.056-130.432zM406.464 97.92c14.08-7.232 33.344 2.816 43.008 22.464L620.16 468.416c9.664 19.648 6.08 41.344-8 48.576-14.08 7.232-33.344-2.816-43.008-22.464l-170.688-348.032c-9.664-19.648-6.08-41.344 8-48.576zM674.048 162.304a32.96 32.96 0 0 1 42.176 0l148.992 130.368a24.448 24.448 0 0 1 8.768 18.496 24.576 24.576 0 0 1-8.768 18.56l-148.992 130.368a32.96 32.96 0 0 1-42.176 0 23.872 23.872 0 0 1 0-36.928l128-112-128-112a23.808 23.808 0 0 1 0-36.864z"  horiz-adv-x="1024" />

    
    <glyph glyph-name="kuaizhao" unicode="&#58900;" d="M816 841.792h-16.96a33.664 33.664 0 0 1-33.92-33.28v-83.264H171.328a49.344 49.344 0 0 1-35.648-14.976 47.68 47.68 0 0 1-15.232-34.944v-499.456H35.648a33.664 33.664 0 0 1-33.792-32.576v-18.112c0.384-17.984 15.36-32.576 33.792-32.576h84.8v-116.544c0-28.288 22.08-49.92 50.88-49.92a49.472 49.472 0 0 1 50.88 49.92v116.544h118.784c18.688 0 33.92 14.976 33.92 33.28v16.64a33.728 33.728 0 0 1-33.92 33.28H222.272V575.424c0 13.312 5.12 24.96 15.296 34.944s22.08 14.976 35.648 14.976h491.968V508.8c0-18.304 15.296-33.28 33.92-33.28h16.96c18.688 0 33.92 14.976 33.92 33.28V625.408h50.88a49.472 49.472 0 0 1 50.88 49.92 49.536 49.536 0 0 1-50.88 49.92h-50.944V808.512a33.664 33.664 0 0 1-33.92 33.28zM985.664 342.4H883.84v16.64c0 36.608-30.528 66.56-67.84 66.56H612.416c-37.312 0-67.84-29.952-67.84-66.56v-16.64h-101.76a33.664 33.664 0 0 1-33.92-33.28v-316.288c0-18.304 15.296-33.28 33.92-33.28h542.848c18.688 0 33.92 14.976 33.92 33.28V309.056a33.664 33.664 0 0 1-33.92 33.344z m-262.976-338.624c-92.288 0-166.912 73.216-166.912 163.776 0 90.56 74.624 163.84 166.912 163.84 92.288 0 166.912-73.216 166.912-163.84 0.064-90.56-74.56-163.776-166.912-163.776zM722.688 259.136c-50.88 0-93.312-41.6-93.312-91.584 0-49.92 42.432-91.584 93.312-91.584 50.88 0 93.312 41.6 93.312 91.584s-42.368 91.584-93.312 91.584z"  horiz-adv-x="1024" />

    
    <glyph glyph-name="mobanguanli" unicode="&#58902;" d="M928.384 894.336H96.768C44.608 894.336 2.56 852.672 1.664 800.768v-835.008a95.104 95.104 0 0 1 95.104-93.568h831.616c52.736 0 95.296 42.56 95.296 95.296V799.04c0 52.736-42.56 95.296-95.296 95.296z m-9.536-895.168a22.464 22.464 0 0 0-22.208-22.208H127.872a22.464 22.464 0 0 0-22.208 22.208V767.872c0 12.096 10.176 22.208 22.208 22.208h768.704c12.096 0 22.208-10.176 22.208-22.208v-768.704zM814.656 692.928H539.584a20.48 20.48 0 0 1-20.352-20.352v-149.312a20.48 20.48 0 0 1 20.352-20.352h275.072a20.48 20.48 0 0 1 20.352 20.352V672.576a20.096 20.096 0 0 1-20.352 20.352zM420.096 266.624H207.936a20.48 20.48 0 0 1-20.352-20.352v-148.672a20.48 20.48 0 0 1 20.352-20.352h200.768a31.808 31.808 0 0 1 31.744 31.744v137.856a20.8 20.8 0 0 1-20.352 19.776zM814.656 424.192H539.584a20.48 20.48 0 0 1-20.352-20.352v-306.24a20.48 20.48 0 0 1 20.352-20.352h275.072a20.48 20.48 0 0 1 20.352 20.352V403.84a20.096 20.096 0 0 1-20.352 20.352zM420.096 692.928H207.936a20.48 20.48 0 0 1-20.352-20.352v-306.88a20.48 20.48 0 0 1 20.352-20.352h212.16a20.48 20.48 0 0 1 20.352 20.352V672.576a20.928 20.928 0 0 1-20.352 20.352z"  horiz-adv-x="1024" />

    
    <glyph glyph-name="quanjucanshu" unicode="&#58903;" d="M124.544-127.552h791.488c19.776 0 32.96 13.184 32.96 32.96V861.824c0 19.776-13.184 32.96-32.96 32.96H124.544c-19.456 0-32.384-12.864-32.832-32.064v-958.144c0.448-19.264 13.376-32.128 32.832-32.128z m33.024 956.416h725.568v-890.432H157.568V828.864zM428.8 187.328m-103.616 0a103.616 103.616 0 1 1 207.232 0 103.616 103.616 0 1 1-207.232 0ZM223.488 253.696h65.984v-132.672H223.488zM223.488 589.376h219.904v-111.552H223.488zM614.592 541.824m-111.232 0a111.232 111.232 0 1 1 222.464 0 111.232 111.232 0 1 1-222.464 0ZM567.104 253.696h283.008v-132.672H567.104zM759.04 589.376h91.072v-111.552H759.04z"  horiz-adv-x="1024" />

    
    <glyph glyph-name="renwurizhi" unicode="&#58904;" d="M753.536 896H275.328C182.08 896 105.792 797.184 105.792 676.48v-584.896c0-120.704 76.288-219.52 169.536-219.52h426.112c53.248 0 220.352 216.384 220.352 285.376V676.48C923.008 797.248 846.72 896 753.536 896z m-52.096-962.816h-20.608v111.296c0 73.664 46.016 134.784 104.192 134.784h89.6v-20.352c-6.08-45.376-140.48-219.456-173.184-225.728z m38.144 653.76H323.968a61.44 61.44 0 0 0-61.312 61.312v6.208a61.44 61.44 0 0 0 61.312 61.312h415.616a61.44 61.44 0 0 0 61.312-61.312v-6.272a61.44 61.44 0 0 0-61.312-61.248z m0-223.936H323.968a61.44 61.44 0 0 0-61.312 61.312v6.272a61.44 61.44 0 0 0 61.312 61.312h415.616a61.44 61.44 0 0 0 61.312-61.312v-6.272a61.44 61.44 0 0 0-61.312-61.312z m-165.824-254.08H340.864a61.44 61.44 0 0 0-61.312 61.312v6.272a61.44 61.44 0 0 0 61.312 61.312h232.896a61.44 61.44 0 0 0 61.312-61.312v-6.272a61.44 61.44 0 0 0-61.312-61.312z"  horiz-adv-x="1024" />

    
    <glyph glyph-name="ruanjianchanpin" unicode="&#58905;" d="M584.384 603.584h163.072v-163.072H584.384zM511.936 895.424C234.048 895.424 7.168 672.832 0.256 396.608v-26.048c6.912-276.224 233.792-498.816 511.68-498.816 282.24 0 511.808 229.632 511.808 511.808 0 282.304-229.568 511.872-511.808 511.872z m-15.424-794.432H244.864V352.64h251.648v-251.648z m0 295.232H244.864V647.872h251.648v-251.648z m295.232-295.232H540.096V352.64h251.648v-251.648z m0 295.232H540.096V647.872h251.648v-251.648z"  horiz-adv-x="1024" />

    
    <glyph glyph-name="renwujihua" unicode="&#58906;" d="M656.667998 704.516363a25.006714 25.006714 0 0 0-17.843665 7.163049 61.397559 61.397559 0 0 0-12.791158 17.395975 94.974349 94.974349 0 0 0-7.61074 20.977499 82.50297 82.50297 0 0 0-2.558231 17.907621V894.656928h2.046585c5.436242 0 11.064352-0.831425 16.884329-2.558231 5.756021-1.726806 12.599291-4.924596 20.401897-9.72128s17.332019-11.767865 28.588238-20.9775c11.256219-9.209634 25.326493-21.297278 42.338734-36.262933 18.355312-16.372682 32.809321-30.315045 43.362026-41.891043 10.552705-11.575998 18.675091-21.297278 24.495068-29.16384a62.420852 62.420852 0 0 0 10.744572-19.890251c1.343072-5.436242 2.046585-10.232926 2.046586-14.326097v-15.34939h-150.104241z m118.382169-383.287053a222.694063 222.694063 0 0 0 207.152805-136.993303c11.575998-27.245167 17.332019-56.600875 17.332019-87.939212a222.630107 222.630107 0 0 0-65.298862-159.505742 223.397576 223.397576 0 0 0-159.185962-65.426774 223.397576 223.397576 0 0 0-158.16267 65.426774 231.711829 231.711829 0 0 0-48.47849 71.56653 217.257821 217.257821 0 0 0-17.843665 87.939212c0 31.338337 5.947889 60.694045 17.843665 87.939212 11.895777 27.245167 28.076592 51.100677 48.47849 71.566529a222.694063 222.694063 0 0 0 158.16267 65.426774z m193.913957-257.358101c8.825899 0 16.692461 4.924596 23.599686 14.773788a60.118443 60.118443 0 0 1 10.296883 35.431508c0 13.750495-3.453613 25.582316-10.296883 35.431508-6.907225 9.849192-14.709832 14.773788-23.599686 14.773787h-139.93527v129.830255c0 7.866562-4.157126 14.773788-12.535335 20.65772-8.378209 5.947889-19.890251 8.889855-34.600083 8.889855-14.709832 0-25.774184-2.941966-33.129099-8.889855-7.354916-5.883933-11.064352-12.791158-11.000396-20.65772v-162.319796a79.433092 79.433092 0 0 1-2.941967-17.715754c0-13.814451 3.453613-25.582316 10.296883-35.431508 6.907225-9.849192 14.709832-14.773788 23.599686-14.773788h200.245581z m-484.720937 63.124365a98.108183 98.108183 0 0 1-1.023293-14.326097v-15.34939c0-30.634824 4.41295-59.606797 13.238849-86.851963 8.825899-27.245167 21.105411-52.827483 36.710624-76.682993H171.947062c-12.91907 0-27.053299 3.773392-42.338734 11.256219a179.715771 179.715771 0 0 0-76.043435 71.502574 98.619829 98.619829 0 0 0-13.238848 49.054091V762.780088a108.724844 108.724844 0 0 0 10.232926 44.449275c6.84327 15.34939 15.669169 29.483619 26.541653 42.402689 10.872484 12.983025 23.471775 23.663643 37.733917 32.169762 14.262141 8.50612 29.227796 12.791158 44.896965 12.791159h390.833836V766.809303c0-13.622583 2.046585-27.756813 6.139756-42.402689 4.093171-14.58192 10.552705-28.396371 19.378604-41.379397 8.825899-12.91907 20.082118-23.471775 33.704702-31.658116 13.622583-8.186341 29.611531-12.279512 47.966843-12.279512h149.016992v-254.544046a68.880386 68.880386 0 0 1-17.33202 2.046585h-18.419267c-51.036721 0-97.660492-11.959733-139.807358-35.751287a288.568527 288.568527 0 0 1-102.073442-96.125553H232.193416a62.676675 62.676675 0 0 1-45.408611-18.419268 60.31031 60.31031 0 0 1-18.866958-44.96092c0-17.715754 6.267667-32.873276 18.866958-45.472567a61.909205 61.909205 0 0 1 45.408611-18.930914l252.049771 0.063955z m-252.113726 384.374302a61.909205 61.909205 0 0 1-45.408612-18.930914 62.228984 62.228984 0 0 1-18.866958-45.536523c0-17.715754 6.267667-32.745365 18.866958-44.960921a62.676675 62.676675 0 0 1 45.408612-18.419268h382.71145a60.885913 60.885913 0 0 1 44.896965 18.419268 61.333603 61.333603 0 0 1 18.355312 44.960921 62.740631 62.740631 0 0 1-18.355312 45.472567 60.374266 60.374266 0 0 1-44.896965 18.930914H232.129461z m0 0"  horiz-adv-x="1024" />

    
    <glyph glyph-name="ronglianggailan" unicode="&#58907;" d="M741.504 671.488l-60.352-85.952H343.616l-60.352 85.952h458.24z m51.84-384.768h-561.92l-60.416 85.952h682.688l-60.352-85.952z m-56.192 149.44H287.552v-0.064l-60.416 86.016h570.368l-60.352-85.952zM1019.968 207.68h0.832L873.344 737.28c-9.984 39.488-52.416 70.08-98.432 70.08H246.016c-46.08 0-81.216-31.872-94.656-70.08L3.84 207.68h0.832a36.8 36.8 0 0 1-2.752-14.592v-174.144c0.512-38.336 37.504-69.312 83.264-69.312h854.272c46.016 0 83.264 31.296 83.392 69.888v172.736a34.752 34.752 0 0 1-2.88 15.424z m-347.584 14.848v-122.24h-320v122.24h-258.56l143.36 512.896h550.528l143.296-512.896h-258.624zM287.552 436.096v0.064h449.6l60.352 85.952H227.136zM681.152 585.536l60.352 85.952h-458.24l60.352-85.952zM231.424 286.72h561.92l60.352 85.952H171.008z"  horiz-adv-x="1024" />

    
    <glyph glyph-name="rongliangfenxi" unicode="&#58908;" d="M78.976 55.872h155.392c33.792 0 61.248 30.208 61.248 67.392V489.856c0 37.248-27.456 67.52-61.248 67.52H78.976c-33.856 0-61.248-30.272-61.248-67.52v-366.592c0.064-37.184 27.456-67.392 61.248-67.392zM993.984-18.624H29.952c-15.744 0-28.544-13.952-28.992-31.232v-1.856c0.448-17.28 13.248-31.296 28.992-31.296h964.032c16.064 0 29.248 14.528 29.248 32.256 0 17.664-13.248 32.128-29.248 32.128zM589.888 55.872c33.856 0 61.184 30.208 61.184 67.392V783.616c0 37.248-27.328 67.456-61.184 67.456h-155.52c-33.792 0-61.312-30.208-61.312-67.456v-660.352c0-37.184 27.52-67.392 61.312-67.392h155.52zM945.28 55.872c33.856 0 61.312 30.208 61.312 67.392V294.464c0 37.312-27.52 67.52-61.312 67.52h-155.456c-33.792 0-61.312-30.208-61.312-67.52v-171.264c0-37.184 27.456-67.392 61.312-67.392h155.456z"  horiz-adv-x="1024" />

    
    <glyph glyph-name="shenpiguanli" unicode="&#58909;" d="M884.046013 106.217531h-49.925001l-97.461247 136.39797a102.895667 102.895667 0 0 1 69.094769 96.864058c0 56.852394-46.22243 103.134542-103.074824 103.134543s-103.074824-46.22243-103.074823-103.134543c0-44.848895 29.023386-82.770397 69.094768-96.864058L571.118971 106.217531h-49.925002a45.565522 45.565522 0 0 1-45.505802-45.505803v-73.334811c0-25.081939 20.423864-45.505803 45.505802-45.505803h362.792326c25.081939 0 45.505803 20.423864 45.505802 45.505803v73.334811a45.386365 45.386365 0 0 1-45.446084 45.505803z m-181.605178 50.283315l12.660407 0.776345 85.995218-120.333586h-184.113373l85.457748 119.557241z m239.950545-284.500846M113.254155-0.559865V841.954394c0 3.881729 3.28454 7.166268 7.166268 7.166269H805.217064c3.881729 0 7.166268-3.28454 7.166268-7.166269v-404.655275c16.124103-8.121771 30.635796-18.990611 42.997609-32.009331V841.954394a50.223596 50.223596 0 0 1-50.163877 50.163877H120.420423a50.223596 50.223596 0 0 1-50.163877-50.163877v-842.514259c0-27.649851 22.514026-50.163877 50.163877-50.163877h328.334519v40.78801c0 0.716627 0.179157 1.433254 0.238876 2.209599H120.420423a7.285706 7.285706 0 0 0-7.166268 7.166268z m0 0M675.029859 656.885519H259.087712a48.969499 48.969499 0 1 0 0 98.058436h415.942147a48.969499 48.969499 0 1 0 0-98.058436zM467.984428 427.206625H259.087712a48.969499 48.969499 0 1 0 0 98.058436h208.896716a48.969499 48.969499 0 1 0 0-98.058436zM467.984428 193.347408H259.087712a48.969499 48.969499 0 1 0 0 98.058436h208.896716a48.969499 48.969499 0 1 0 0-98.058436z"  horiz-adv-x="1024" />

    
    <glyph glyph-name="renwuguanli" unicode="&#58910;" d="M708.352 818.624H116.864A115.84 115.84 0 0 1 1.344 703.104v-618.624a115.84 115.84 0 0 1 115.52-115.52h300.608a417.152 417.152 0 0 0-78.208 243.52c0 39.744 5.632 78.208 15.872 114.688H146.56a36.352 36.352 0 0 0-36.288 36.288c0 19.968 16.32 36.288 36.288 36.288h230.976c1.984 0 3.776-0.192 5.632-0.512a421.632 421.632 0 0 0 112.704 139.584H146.56a36.352 36.352 0 0 0-36.288 36.288c0 19.968 16.32 36.288 36.288 36.288h363.008a36.48 36.48 0 0 0 33.344-22.08 418.048 418.048 0 0 0 182.016 41.6c33.984 0 67.136-4.096 98.816-11.712V702.976a115.648 115.648 0 0 1-115.392 115.648zM146.56 192.128h148.48c19.968 0 36.288-16.32 36.288-36.288a36.352 36.352 0 0 0-36.288-36.288H146.56a36.352 36.352 0 0 0-36.288 36.288 36.352 36.352 0 0 0 36.288 36.288z m640.448 98.56a78.016 78.016 0 0 1-54.976 22.272c-10.752 0-20.608-1.984-30.016-5.952a76.352 76.352 0 0 1-47.168-70.656c0-10.56 1.984-20.48 6.08-29.888 3.968-9.216 9.536-17.472 16.512-24.576a76.16 76.16 0 0 1 54.592-22.592 76.8 76.8 0 0 1 71.488 47.168c3.968 9.216 6.08 19.328 6.08 29.888 0 10.56-1.984 20.48-6.08 29.888a72.704 72.704 0 0 1-16.512 24.448z m-53.888 0.448M732.224 528.704a292.544 292.544 0 1 1 0-585.088 292.544 292.544 0 0 1 0 585.088z m141.568-313.856a37.312 37.312 0 0 1 17.792-13.184c1.664-1.024 3.2-1.856 4.416-2.88a15.68 15.68 0 0 0 5.44-8.256c0.512-2.88 0.32-6.4-0.32-10.496a65.408 65.408 0 0 0-3.712-12.48 47.296 47.296 0 0 0-6.272-11.328 22.848 22.848 0 0 0-7.936-7.296 16.384 16.384 0 0 0-7.616-2.176 20.992 20.992 0 0 0-7.296 1.536 98.88 98.88 0 0 1-9.152 2.048 51.072 51.072 0 0 1-22.464-2.048 22.4 22.4 0 0 1-9.664-6.08 34.752 34.752 0 0 1-10.176-20.608 40.96 40.96 0 0 1 3.2-22.016 14.08 14.08 0 0 0-1.024-14.528 29.312 29.312 0 0 0-6.912-5.952 78.72 78.72 0 0 0-10.304-5.568 66.112 66.112 0 0 0-22.848-5.568 9.6 9.6 0 0 0-6.272 2.56 13.696 13.696 0 0 0-4.032 5.44h-0.32a44.992 44.992 0 0 1-13.696 19.264 33.6 33.6 0 0 1-22.464 8.128 34.688 34.688 0 0 1-22.464-8.128 42.88 42.88 0 0 1-14.016-18.944 11.776 11.776 0 0 0-5.44-6.272 15.936 15.936 0 0 0-7.936-2.048 45.184 45.184 0 0 0-11.52 1.856 100.352 100.352 0 0 0-12.672 4.544 67.776 67.776 0 0 0-11.52 6.272 30.976 30.976 0 0 0-7.616 7.296 12.224 12.224 0 0 0-2.048 5.888 22.336 22.336 0 0 0 2.688 9.664 35.392 35.392 0 0 1 3.072 18.944 33.344 33.344 0 0 1-9.28 19.776 25.856 25.856 0 0 1-12.352 7.104 56.064 56.064 0 0 1-29.632-1.536 15.36 15.36 0 0 0-17.6 7.488 73.024 73.024 0 0 0-10.496 24.576 28.16 28.16 0 0 0-0.704 11.008c0.704 5.248 3.2 8.64 7.296 10.112a50.816 50.816 0 0 1 19.648 14.208 32.512 32.512 0 0 1 0 44.288 56.512 56.512 0 0 1-19.712 13.568c-2.176 0.704-4.032 2.56-5.376 5.248a16.896 16.896 0 0 0-2.24 8.448 58.816 58.816 0 0 0 5.44 21.632c1.536 3.52 3.392 6.912 5.44 9.984a22.592 22.592 0 0 0 6.72 6.784 9.984 9.984 0 0 0 5.568 1.536 25.344 25.344 0 0 0 6.144-1.536 45.44 45.44 0 0 1 22.848-2.688 36.928 36.928 0 0 1 20.992 10.304 25.856 25.856 0 0 1 6.4 10.624 59.84 59.84 0 0 1 2.56 23.68c-0.32 3.392-0.704 5.76-0.832 7.296-0.512 1.536-0.832 3.2-1.344 5.056a8.32 8.32 0 0 0 0.512 5.056 20.608 20.608 0 0 0 7.808 8.768 60.608 60.608 0 0 0 12.16 6.272c4.416 1.664 8.64 2.88 12.672 3.712a51.456 51.456 0 0 0 9.792 1.216c3.2 0 5.568-1.024 7.424-3.072a21.056 21.056 0 0 0 3.904-6.272c2.688-6.4 7.104-12.16 13.184-17.28a33.024 33.024 0 0 1 21.504-7.424 37.952 37.952 0 0 1 22.656 7.104 38.08 38.08 0 0 1 13.888 17.92 27.072 27.072 0 0 0 4.544 5.888 9.152 9.152 0 0 0 6.4 3.072 45.44 45.44 0 0 0 11.136-1.536c4.032-1.024 7.936-2.368 11.84-4.032a57.28 57.28 0 0 0 10.816-6.4c3.2-2.688 5.888-5.568 7.808-8.64a8.192 8.192 0 0 0 1.024-6.272 21.504 21.504 0 0 0-1.536-4.928 38.144 38.144 0 0 1-2.88-22.016 35.008 35.008 0 0 1 10.688-20.288c5.76-5.76 12.992-8.96 21.504-9.664a46.976 46.976 0 0 1 23.68 4.224 12.928 12.928 0 0 0 7.104 1.536 10.816 10.816 0 0 0 7.104-3.2 40.96 40.96 0 0 0 9.664-15.36c2.88-6.912 4.736-13.888 5.568-20.8 0.512-4.032-0.192-7.296-2.048-9.664a14.528 14.528 0 0 0-5.568-4.544 42.176 42.176 0 0 1-19.264-13.888 34.496 34.496 0 0 1-7.936-22.656 32.192 32.192 0 0 1 6.464-21.376z m0 0"  horiz-adv-x="1024" />

    
    <glyph glyph-name="shenpitongji" unicode="&#58911;" d="M102.208-24.192h819.2v-101.824h-819.2zM844.48 281.216H614.208V404.288a254.72 254.72 0 0 1 153.6 233.28c0 140.288-114.624 254.528-256 254.528-141.12 0-256-113.92-256-254.528a254.72 254.72 0 0 1 153.6-233.28v-123.008H179.2c-70.528 0-128.128-56.96-128.128-127.232v-127.232h921.6v127.232a127.488 127.488 0 0 1-128.192 127.168z"  horiz-adv-x="1024" />

    
    <glyph glyph-name="tongzhigonggao" unicode="&#58912;" d="M665.92 252.864l26.112-77.76a229.76 229.76 0 0 1 0 411.008l-26.112-77.76c58.56-29.376 76.672-75.776 76.672-127.744 0-48.704-18.048-98.368-76.672-127.744zM52.864 125.12h128.32c53.952 0 67.2-4.032 98.112-23.872 61.696-39.552 173.888-134.208 231.808-179.776 19.392-15.296 52.608-6.08 52.608 24.704V811.712c0 44.8-39.296 40.896-57.28 25.664-57.6-48.704-169.344-139.392-225.536-176.64-23.168-15.36-45.696-24.64-99.648-24.64H54.08c-24.192 0-52.416-9.344-52.416-51.264v-408.128c0-51.968 34.624-51.584 51.2-51.584zM822.784 764.096l-29.12-76.928c107.264-88.256 153.28-217.088 153.28-306.624 0-83.008-43.968-208.256-153.28-306.624l29.12-76.928c121.408 85.568 200.832 225.28 200.832 383.488s-79.424 298.048-200.832 383.616z"  horiz-adv-x="1024" />

    
    <glyph glyph-name="tongzhixiaoxi" unicode="&#58913;" d="M513.216 889.984c-282.752 0-512-198.144-512-442.624 0-139.712 75.072-264.128 192-345.28v-223.808l224.32 134.4c31.04-5.056 62.912-8 95.68-8 282.752 0 512 198.208 512 442.688 0 244.416-229.248 442.624-512 442.624z m-256-505.92c-35.328 0-64 28.352-64 63.296a63.68 63.68 0 0 0 64 63.232c35.392 0 64-28.352 64-63.232a63.68 63.68 0 0 0-64-63.296z m256 0c-35.328 0-64 28.352-64 63.296a63.68 63.68 0 0 0 64 63.232c35.328 0 64-28.352 64-63.232a63.68 63.68 0 0 0-64-63.296z m256 0c-35.392 0-64 28.352-64 63.296a63.616 63.616 0 0 0 64 63.232c35.328 0 64-28.352 64-63.232a63.68 63.68 0 0 0-64-63.296z"  horiz-adv-x="1025" />

    
    <glyph glyph-name="wuliji" unicode="&#58914;" d="M783.168 894.656h-529.28a62.08 62.08 0 0 1-62.848-61.376v-899.776c0-33.856 28.16-61.312 62.848-61.312h529.28a62.08 62.08 0 0 1 62.848 61.312V833.344a62.08 62.08 0 0 1-62.848 61.312zM256.384 766.848h524.096v-127.808H256.384V766.848z m167.808-575.104c0 50.816 42.24 91.968 94.272 91.968 52.096 0 94.336-41.216 94.336-91.968 0-50.816-42.24-92.032-94.336-92.032-52.032 0.064-94.272 41.216-94.272 92.032z m356.352 255.552H256.448V575.104h524.096v-127.808z m0 0"  horiz-adv-x="1024" />

    
    <glyph glyph-name="wangdianguanli" unicode="&#58915;" d="M731.52-128v104.512H292.48V-128H0v292.48h292.48v-104.512h177.92V342.4H198.464A198.656 198.656 0 0 0 0 540.864a198.656 198.656 0 0 0 198.464 198.464c24.96 0 49.344-4.736 72.448-14.016l9.472-3.84 4.096 9.408A275.968 275.968 0 0 0 537.6 896c103.168 0 200.128-60.16 246.976-153.344l3.456-6.912 7.616 1.216a198.656 198.656 0 0 0 228.288-196.096 198.656 198.656 0 0 0-198.464-198.464H553.536v-282.432h177.92V164.48H1024V-128h-292.48zM198.464 655.68c-63.424 0-115.008-51.584-115.008-115.008 0-63.424 51.712-115.008 115.328-115.008h627.008c63.424 0 115.008 51.584 115.008 115.008s-51.584 115.008-115.008 115.008c-15.68 0-31.168-3.328-46.016-9.792a41.28 41.28 0 0 0-34.496 0.448 41.984 41.984 0 0 0-22.528 25.984C698.24 756.032 623.872 812.288 537.6 812.288a192.32 192.32 0 0 1-190.72-164.16 41.472 41.472 0 0 0-41.152-35.392 41.792 41.792 0 0 0-28.736 11.328 115.2 115.2 0 0 1-78.528 31.616z m0 0"  horiz-adv-x="1024" />

    
    <glyph glyph-name="xuniyingyong" unicode="&#58916;" d="M702.4 614.848zM1019.264 163.264V796.992H5.44v-633.728h441.664v-126.72H322.176v-63.36h380.224v63.36H575.168v126.72h444.096z m-950.592 63.36V733.632h887.232v-507.008H68.672zM564.672 532.288l160.448 160.448 160.384-160.448L725.12 371.84zM180.8 589.888h224a32 32 0 0 1 0 64h-224a32 32 0 0 1 0-64zM149.312 487.488a32 32 0 0 1 32-32h288a32 32 0 0 1 0 64h-288a32 32 0 0 1-32-32zM558.4 370.176h-377.6a32 32 0 0 1 0-64h377.6a32 32 0 0 1 0 64z"  horiz-adv-x="1024" />

    
    <glyph glyph-name="xitongpeizhi" unicode="&#58917;" d="M1006.144 293.696H573.824c-9.856 0-17.856-11.392-17.856-25.6v-60.416c0-14.08 8-25.6 17.856-25.6h432.32c9.856 0 17.856 11.52 17.856 25.6v60.416c0 14.08-8 25.6-17.856 25.6zM1024 115.456c0 14.08-8 25.6-17.856 25.6H573.824c-9.856 0-17.856-11.392-17.856-25.6v-60.416c0-14.08 8-25.6 17.856-25.6h432.32c9.856 0 17.856 11.52 17.856 25.6v60.416zM1006.144-11.648H573.824c-9.856 0-17.856-11.392-17.856-25.6v-60.416c0-14.08 8-25.6 17.856-25.6h432.32c9.856 0 17.856 11.52 17.856 25.728v60.288c0 14.08-8 25.6-17.856 25.6zM8.96 225.152l84.672-145.472a61.056 61.056 0 0 1 80.512-23.36l67.776 27.392c25.6-19.072 53.568-35.008 83.456-47.616l9.984-72.064a60.352 60.352 0 0 1 60.672-57.28h84.672v285.696c-114.368 0-207.36 92.224-207.36 205.568s92.992 205.568 207.488 205.568c114.368 0 207.488-92.224 207.488-205.568 0-11.968-1.088-23.68-3.072-35.072h191.232a377.216 377.216 0 0 1-1.408 82.752l58.048 44.544a59.904 59.904 0 0 1 19.712 80.704l-84.672 145.472a59.904 59.904 0 0 1-36.864 28.096 60.672 60.672 0 0 1-43.648-4.608l-67.776-27.392a396.224 396.224 0 0 1-83.456 47.616L626.304 832.256A60.416 60.416 0 0 1 565.632 889.6h-169.6a60.288 60.288 0 0 1-60.672-57.344l-9.984-72.064a401.6 401.6 0 0 1-83.52-47.616l-67.84 27.392a60.928 60.928 0 0 1-80.384-23.488L8.96 571.008a59.776 59.776 0 0 1 19.84-80.64l57.92-44.544a368.576 368.576 0 0 1 0-95.36l-58.112-44.608a59.712 59.712 0 0 1-19.648-80.704z"  horiz-adv-x="1024" />

    
    </font>
</defs>
</svg>
